<?xml version="1.0" encoding="utf-8" standalone="no"?>
<!DOCTYPE svg PUBLIC "-//W3C//DTD SVG 1.1//EN"
  "http://www.w3.org/Graphics/SVG/1.1/DTD/svg11.dtd">
<svg xmlns:xlink="http://www.w3.org/1999/xlink" width="1080pt" height="720pt" viewBox="0 0 1080 720" xmlns="http://www.w3.org/2000/svg" version="1.1">
 <metadata>
  <rdf:RDF xmlns:dc="http://purl.org/dc/elements/1.1/" xmlns:cc="http://creativecommons.org/ns#" xmlns:rdf="http://www.w3.org/1999/02/22-rdf-syntax-ns#">
   <cc:Work>
    <dc:type rdf:resource="http://purl.org/dc/dcmitype/StillImage"/>
    <dc:date>2023-07-26T18:08:17.975794</dc:date>
    <dc:format>image/svg+xml</dc:format>
    <dc:creator>
     <cc:Agent>
      <dc:title>Matplotlib v3.6.0, https://matplotlib.org/</dc:title>
     </cc:Agent>
    </dc:creator>
   </cc:Work>
  </rdf:RDF>
 </metadata>
 <defs>
  <style type="text/css">*{stroke-linejoin: round; stroke-linecap: butt}</style>
 </defs>
 <g id="figure_1">
  <g id="patch_1">
   <path d="M 0 720 
L 1080 720 
L 1080 0 
L 0 0 
z
" style="fill: #ffffff"/>
  </g>
  <g id="axes_1">
   <g id="patch_2">
    <path d="M 56.9 372.104621 
L 536.175 372.104621 
L 536.175 77.76 
L 56.9 77.76 
z
" style="fill: #ffffff"/>
   </g>
   <g id="matplotlib.axis_1">
    <g id="ytick_1">
     <g id="line2d_1">
      <path d="M 56.9 354.409417 
L 536.175 354.409417 
" clip-path="url(#p2557aeccd7)" style="fill: none; stroke-dasharray: 1.85,0.8; stroke-dashoffset: 0; stroke: #cccccc; stroke-width: 0.5"/>
     </g>
     <g id="text_1">
      <!-- 20 -->
      <g style="fill: #262626" transform="translate(37.175 358.208636) scale(0.1 -0.1)">
       <defs>
        <path id="DejaVuSans-32" d="M 1228 531 
L 3431 531 
L 3431 0 
L 469 0 
L 469 531 
Q 828 903 1448 1529 
Q 2069 2156 2228 2338 
Q 2531 2678 2651 2914 
Q 2772 3150 2772 3378 
Q 2772 3750 2511 3984 
Q 2250 4219 1831 4219 
Q 1534 4219 1204 4116 
Q 875 4013 500 3803 
L 500 4441 
Q 881 4594 1212 4672 
Q 1544 4750 1819 4750 
Q 2544 4750 2975 4387 
Q 3406 4025 3406 3419 
Q 3406 3131 3298 2873 
Q 3191 2616 2906 2266 
Q 2828 2175 2409 1742 
Q 1991 1309 1228 531 
z
" transform="scale(0.015625)"/>
        <path id="DejaVuSans-30" d="M 2034 4250 
Q 1547 4250 1301 3770 
Q 1056 3291 1056 2328 
Q 1056 1369 1301 889 
Q 1547 409 2034 409 
Q 2525 409 2770 889 
Q 3016 1369 3016 2328 
Q 3016 3291 2770 3770 
Q 2525 4250 2034 4250 
z
M 2034 4750 
Q 2819 4750 3233 4129 
Q 3647 3509 3647 2328 
Q 3647 1150 3233 529 
Q 2819 -91 2034 -91 
Q 1250 -91 836 529 
Q 422 1150 422 2328 
Q 422 3509 836 4129 
Q 1250 4750 2034 4750 
z
" transform="scale(0.015625)"/>
       </defs>
       <use xlink:href="#DejaVuSans-32"/>
       <use xlink:href="#DejaVuSans-30" x="63.623047"/>
      </g>
     </g>
    </g>
    <g id="ytick_2">
     <g id="line2d_2">
      <path d="M 56.9 318.443554 
L 536.175 318.443554 
" clip-path="url(#p2557aeccd7)" style="fill: none; stroke-dasharray: 1.85,0.8; stroke-dashoffset: 0; stroke: #cccccc; stroke-width: 0.5"/>
     </g>
     <g id="text_2">
      <!-- 25 -->
      <g style="fill: #262626" transform="translate(37.175 322.242773) scale(0.1 -0.1)">
       <defs>
        <path id="DejaVuSans-35" d="M 691 4666 
L 3169 4666 
L 3169 4134 
L 1269 4134 
L 1269 2991 
Q 1406 3038 1543 3061 
Q 1681 3084 1819 3084 
Q 2600 3084 3056 2656 
Q 3513 2228 3513 1497 
Q 3513 744 3044 326 
Q 2575 -91 1722 -91 
Q 1428 -91 1123 -41 
Q 819 9 494 109 
L 494 744 
Q 775 591 1075 516 
Q 1375 441 1709 441 
Q 2250 441 2565 725 
Q 2881 1009 2881 1497 
Q 2881 1984 2565 2268 
Q 2250 2553 1709 2553 
Q 1456 2553 1204 2497 
Q 953 2441 691 2322 
L 691 4666 
z
" transform="scale(0.015625)"/>
       </defs>
       <use xlink:href="#DejaVuSans-32"/>
       <use xlink:href="#DejaVuSans-35" x="63.623047"/>
      </g>
     </g>
    </g>
    <g id="ytick_3">
     <g id="line2d_3">
      <path d="M 56.9 282.477691 
L 536.175 282.477691 
" clip-path="url(#p2557aeccd7)" style="fill: none; stroke-dasharray: 1.85,0.8; stroke-dashoffset: 0; stroke: #cccccc; stroke-width: 0.5"/>
     </g>
     <g id="text_3">
      <!-- 30 -->
      <g style="fill: #262626" transform="translate(37.175 286.27691) scale(0.1 -0.1)">
       <defs>
        <path id="DejaVuSans-33" d="M 2597 2516 
Q 3050 2419 3304 2112 
Q 3559 1806 3559 1356 
Q 3559 666 3084 287 
Q 2609 -91 1734 -91 
Q 1441 -91 1130 -33 
Q 819 25 488 141 
L 488 750 
Q 750 597 1062 519 
Q 1375 441 1716 441 
Q 2309 441 2620 675 
Q 2931 909 2931 1356 
Q 2931 1769 2642 2001 
Q 2353 2234 1838 2234 
L 1294 2234 
L 1294 2753 
L 1863 2753 
Q 2328 2753 2575 2939 
Q 2822 3125 2822 3475 
Q 2822 3834 2567 4026 
Q 2313 4219 1838 4219 
Q 1578 4219 1281 4162 
Q 984 4106 628 3988 
L 628 4550 
Q 988 4650 1302 4700 
Q 1616 4750 1894 4750 
Q 2613 4750 3031 4423 
Q 3450 4097 3450 3541 
Q 3450 3153 3228 2886 
Q 3006 2619 2597 2516 
z
" transform="scale(0.015625)"/>
       </defs>
       <use xlink:href="#DejaVuSans-33"/>
       <use xlink:href="#DejaVuSans-30" x="63.623047"/>
      </g>
     </g>
    </g>
    <g id="ytick_4">
     <g id="line2d_4">
      <path d="M 56.9 246.511828 
L 536.175 246.511828 
" clip-path="url(#p2557aeccd7)" style="fill: none; stroke-dasharray: 1.85,0.8; stroke-dashoffset: 0; stroke: #cccccc; stroke-width: 0.5"/>
     </g>
     <g id="text_4">
      <!-- 35 -->
      <g style="fill: #262626" transform="translate(37.175 250.311047) scale(0.1 -0.1)">
       <use xlink:href="#DejaVuSans-33"/>
       <use xlink:href="#DejaVuSans-35" x="63.623047"/>
      </g>
     </g>
    </g>
    <g id="ytick_5">
     <g id="line2d_5">
      <path d="M 56.9 210.545966 
L 536.175 210.545966 
" clip-path="url(#p2557aeccd7)" style="fill: none; stroke-dasharray: 1.85,0.8; stroke-dashoffset: 0; stroke: #cccccc; stroke-width: 0.5"/>
     </g>
     <g id="text_5">
      <!-- 40 -->
      <g style="fill: #262626" transform="translate(37.175 214.345184) scale(0.1 -0.1)">
       <defs>
        <path id="DejaVuSans-34" d="M 2419 4116 
L 825 1625 
L 2419 1625 
L 2419 4116 
z
M 2253 4666 
L 3047 4666 
L 3047 1625 
L 3713 1625 
L 3713 1100 
L 3047 1100 
L 3047 0 
L 2419 0 
L 2419 1100 
L 313 1100 
L 313 1709 
L 2253 4666 
z
" transform="scale(0.015625)"/>
       </defs>
       <use xlink:href="#DejaVuSans-34"/>
       <use xlink:href="#DejaVuSans-30" x="63.623047"/>
      </g>
     </g>
    </g>
    <g id="ytick_6">
     <g id="line2d_6">
      <path d="M 56.9 174.580103 
L 536.175 174.580103 
" clip-path="url(#p2557aeccd7)" style="fill: none; stroke-dasharray: 1.85,0.8; stroke-dashoffset: 0; stroke: #cccccc; stroke-width: 0.5"/>
     </g>
     <g id="text_6">
      <!-- 45 -->
      <g style="fill: #262626" transform="translate(37.175 178.379321) scale(0.1 -0.1)">
       <use xlink:href="#DejaVuSans-34"/>
       <use xlink:href="#DejaVuSans-35" x="63.623047"/>
      </g>
     </g>
    </g>
    <g id="ytick_7">
     <g id="line2d_7">
      <path d="M 56.9 138.61424 
L 536.175 138.61424 
" clip-path="url(#p2557aeccd7)" style="fill: none; stroke-dasharray: 1.85,0.8; stroke-dashoffset: 0; stroke: #cccccc; stroke-width: 0.5"/>
     </g>
     <g id="text_7">
      <!-- 50 -->
      <g style="fill: #262626" transform="translate(37.175 142.413459) scale(0.1 -0.1)">
       <use xlink:href="#DejaVuSans-35"/>
       <use xlink:href="#DejaVuSans-30" x="63.623047"/>
      </g>
     </g>
    </g>
    <g id="ytick_8">
     <g id="line2d_8">
      <path d="M 56.9 102.648377 
L 536.175 102.648377 
" clip-path="url(#p2557aeccd7)" style="fill: none; stroke-dasharray: 1.85,0.8; stroke-dashoffset: 0; stroke: #cccccc; stroke-width: 0.5"/>
     </g>
     <g id="text_8">
      <!-- 55 -->
      <g style="fill: #262626" transform="translate(37.175 106.447596) scale(0.1 -0.1)">
       <use xlink:href="#DejaVuSans-35"/>
       <use xlink:href="#DejaVuSans-35" x="63.623047"/>
      </g>
     </g>
    </g>
    <g id="text_9">
     <!-- BMI -->
     <g style="fill: #262626" transform="translate(30.679375 235.995748) rotate(-90) scale(0.12 -0.12)">
      <defs>
       <path id="DejaVuSans-42" d="M 1259 2228 
L 1259 519 
L 2272 519 
Q 2781 519 3026 730 
Q 3272 941 3272 1375 
Q 3272 1813 3026 2020 
Q 2781 2228 2272 2228 
L 1259 2228 
z
M 1259 4147 
L 1259 2741 
L 2194 2741 
Q 2656 2741 2882 2914 
Q 3109 3088 3109 3444 
Q 3109 3797 2882 3972 
Q 2656 4147 2194 4147 
L 1259 4147 
z
M 628 4666 
L 2241 4666 
Q 2963 4666 3353 4366 
Q 3744 4066 3744 3513 
Q 3744 3084 3544 2831 
Q 3344 2578 2956 2516 
Q 3422 2416 3680 2098 
Q 3938 1781 3938 1306 
Q 3938 681 3513 340 
Q 3088 0 2303 0 
L 628 0 
L 628 4666 
z
" transform="scale(0.015625)"/>
       <path id="DejaVuSans-4d" d="M 628 4666 
L 1569 4666 
L 2759 1491 
L 3956 4666 
L 4897 4666 
L 4897 0 
L 4281 0 
L 4281 4097 
L 3078 897 
L 2444 897 
L 1241 4097 
L 1241 0 
L 628 0 
L 628 4666 
z
" transform="scale(0.015625)"/>
       <path id="DejaVuSans-49" d="M 628 4666 
L 1259 4666 
L 1259 0 
L 628 0 
L 628 4666 
z
" transform="scale(0.015625)"/>
      </defs>
      <use xlink:href="#DejaVuSans-42"/>
      <use xlink:href="#DejaVuSans-4d" x="68.603516"/>
      <use xlink:href="#DejaVuSans-49" x="154.882812"/>
     </g>
    </g>
   </g>
   <g id="patch_3">
    <path d="M 176.71875 306.934478 
L 416.35625 306.934478 
L 416.35625 255.862953 
L 176.71875 255.862953 
L 176.71875 306.934478 
z
" clip-path="url(#p2557aeccd7)" style="fill: #3b6258; stroke: #2f2f2f; stroke-width: 1.5; stroke-linejoin: miter"/>
   </g>
   <g id="line2d_9">
    <path d="M 296.5375 306.934478 
L 296.5375 358.72532 
" clip-path="url(#p2557aeccd7)" style="fill: none; stroke: #2f2f2f; stroke-width: 1.5; stroke-linecap: round"/>
   </g>
   <g id="line2d_10">
    <path d="M 296.5375 255.862953 
L 296.5375 180.334641 
" clip-path="url(#p2557aeccd7)" style="fill: none; stroke: #2f2f2f; stroke-width: 1.5; stroke-linecap: round"/>
   </g>
   <g id="line2d_11">
    <path d="M 236.628125 358.72532 
L 356.446875 358.72532 
" clip-path="url(#p2557aeccd7)" style="fill: none; stroke: #2f2f2f; stroke-width: 1.5; stroke-linecap: round"/>
   </g>
   <g id="line2d_12">
    <path d="M 236.628125 180.334641 
L 356.446875 180.334641 
" clip-path="url(#p2557aeccd7)" style="fill: none; stroke: #2f2f2f; stroke-width: 1.5; stroke-linecap: round"/>
   </g>
   <g id="line2d_13">
    <defs>
     <path id="m5a6cd164ca" d="M -2.5 2.5 
L 2.5 -2.5 
M -2.5 -2.5 
L 2.5 2.5 
" style="stroke: #2f2f2f"/>
    </defs>
    <g clip-path="url(#p2557aeccd7)">
     <use xlink:href="#m5a6cd164ca" x="296.5375" y="170.983516" style="fill: #2f2f2f; stroke: #2f2f2f"/>
     <use xlink:href="#m5a6cd164ca" x="296.5375" y="91.139301" style="fill: #2f2f2f; stroke: #2f2f2f"/>
     <use xlink:href="#m5a6cd164ca" x="296.5375" y="174.580103" style="fill: #2f2f2f; stroke: #2f2f2f"/>
     <use xlink:href="#m5a6cd164ca" x="296.5375" y="169.544882" style="fill: #2f2f2f; stroke: #2f2f2f"/>
     <use xlink:href="#m5a6cd164ca" x="296.5375" y="146.52673" style="fill: #2f2f2f; stroke: #2f2f2f"/>
     <use xlink:href="#m5a6cd164ca" x="296.5375" y="156.597171" style="fill: #2f2f2f; stroke: #2f2f2f"/>
     <use xlink:href="#m5a6cd164ca" x="296.5375" y="167.38693" style="fill: #2f2f2f; stroke: #2f2f2f"/>
    </g>
   </g>
   <g id="line2d_14">
    <path d="M 176.71875 284.635643 
L 416.35625 284.635643 
" clip-path="url(#p2557aeccd7)" style="fill: none; stroke: #2f2f2f; stroke-width: 1.5; stroke-linecap: round"/>
   </g>
  </g>
  <g id="axes_2">
   <g id="patch_4">
    <path d="M 589.925 372.104621 
L 1069.2 372.104621 
L 1069.2 77.76 
L 589.925 77.76 
z
" style="fill: #ffffff"/>
   </g>
   <g id="matplotlib.axis_2">
    <g id="ytick_9">
     <g id="line2d_15">
      <path d="M 589.925 328.99354 
L 1069.2 328.99354 
" clip-path="url(#p619b4a2584)" style="fill: none; stroke-dasharray: 1.85,0.8; stroke-dashoffset: 0; stroke: #cccccc; stroke-width: 0.5"/>
     </g>
     <g id="text_10">
      <!-- 20 -->
      <g style="fill: #262626" transform="translate(570.2 332.792759) scale(0.1 -0.1)">
       <use xlink:href="#DejaVuSans-32"/>
       <use xlink:href="#DejaVuSans-30" x="63.623047"/>
      </g>
     </g>
    </g>
    <g id="ytick_10">
     <g id="line2d_16">
      <path d="M 589.925 267.690901 
L 1069.2 267.690901 
" clip-path="url(#p619b4a2584)" style="fill: none; stroke-dasharray: 1.85,0.8; stroke-dashoffset: 0; stroke: #cccccc; stroke-width: 0.5"/>
     </g>
     <g id="text_11">
      <!-- 40 -->
      <g style="fill: #262626" transform="translate(570.2 271.49012) scale(0.1 -0.1)">
       <use xlink:href="#DejaVuSans-34"/>
       <use xlink:href="#DejaVuSans-30" x="63.623047"/>
      </g>
     </g>
    </g>
    <g id="ytick_11">
     <g id="line2d_17">
      <path d="M 589.925 206.388262 
L 1069.2 206.388262 
" clip-path="url(#p619b4a2584)" style="fill: none; stroke-dasharray: 1.85,0.8; stroke-dashoffset: 0; stroke: #cccccc; stroke-width: 0.5"/>
     </g>
     <g id="text_12">
      <!-- 60 -->
      <g style="fill: #262626" transform="translate(570.2 210.187481) scale(0.1 -0.1)">
       <defs>
        <path id="DejaVuSans-36" d="M 2113 2584 
Q 1688 2584 1439 2293 
Q 1191 2003 1191 1497 
Q 1191 994 1439 701 
Q 1688 409 2113 409 
Q 2538 409 2786 701 
Q 3034 994 3034 1497 
Q 3034 2003 2786 2293 
Q 2538 2584 2113 2584 
z
M 3366 4563 
L 3366 3988 
Q 3128 4100 2886 4159 
Q 2644 4219 2406 4219 
Q 1781 4219 1451 3797 
Q 1122 3375 1075 2522 
Q 1259 2794 1537 2939 
Q 1816 3084 2150 3084 
Q 2853 3084 3261 2657 
Q 3669 2231 3669 1497 
Q 3669 778 3244 343 
Q 2819 -91 2113 -91 
Q 1303 -91 875 529 
Q 447 1150 447 2328 
Q 447 3434 972 4092 
Q 1497 4750 2381 4750 
Q 2619 4750 2861 4703 
Q 3103 4656 3366 4563 
z
" transform="scale(0.015625)"/>
       </defs>
       <use xlink:href="#DejaVuSans-36"/>
       <use xlink:href="#DejaVuSans-30" x="63.623047"/>
      </g>
     </g>
    </g>
    <g id="ytick_12">
     <g id="line2d_18">
      <path d="M 589.925 145.085623 
L 1069.2 145.085623 
" clip-path="url(#p619b4a2584)" style="fill: none; stroke-dasharray: 1.85,0.8; stroke-dashoffset: 0; stroke: #cccccc; stroke-width: 0.5"/>
     </g>
     <g id="text_13">
      <!-- 80 -->
      <g style="fill: #262626" transform="translate(570.2 148.884842) scale(0.1 -0.1)">
       <defs>
        <path id="DejaVuSans-38" d="M 2034 2216 
Q 1584 2216 1326 1975 
Q 1069 1734 1069 1313 
Q 1069 891 1326 650 
Q 1584 409 2034 409 
Q 2484 409 2743 651 
Q 3003 894 3003 1313 
Q 3003 1734 2745 1975 
Q 2488 2216 2034 2216 
z
M 1403 2484 
Q 997 2584 770 2862 
Q 544 3141 544 3541 
Q 544 4100 942 4425 
Q 1341 4750 2034 4750 
Q 2731 4750 3128 4425 
Q 3525 4100 3525 3541 
Q 3525 3141 3298 2862 
Q 3072 2584 2669 2484 
Q 3125 2378 3379 2068 
Q 3634 1759 3634 1313 
Q 3634 634 3220 271 
Q 2806 -91 2034 -91 
Q 1263 -91 848 271 
Q 434 634 434 1313 
Q 434 1759 690 2068 
Q 947 2378 1403 2484 
z
M 1172 3481 
Q 1172 3119 1398 2916 
Q 1625 2713 2034 2713 
Q 2441 2713 2670 2916 
Q 2900 3119 2900 3481 
Q 2900 3844 2670 4047 
Q 2441 4250 2034 4250 
Q 1625 4250 1398 4047 
Q 1172 3844 1172 3481 
z
" transform="scale(0.015625)"/>
       </defs>
       <use xlink:href="#DejaVuSans-38"/>
       <use xlink:href="#DejaVuSans-30" x="63.623047"/>
      </g>
     </g>
    </g>
    <g id="ytick_13">
     <g id="line2d_19">
      <path d="M 589.925 83.782984 
L 1069.2 83.782984 
" clip-path="url(#p619b4a2584)" style="fill: none; stroke-dasharray: 1.85,0.8; stroke-dashoffset: 0; stroke: #cccccc; stroke-width: 0.5"/>
     </g>
     <g id="text_14">
      <!-- 100 -->
      <g style="fill: #262626" transform="translate(563.8375 87.582203) scale(0.1 -0.1)">
       <defs>
        <path id="DejaVuSans-31" d="M 794 531 
L 1825 531 
L 1825 4091 
L 703 3866 
L 703 4441 
L 1819 4666 
L 2450 4666 
L 2450 531 
L 3481 531 
L 3481 0 
L 794 0 
L 794 531 
z
" transform="scale(0.015625)"/>
       </defs>
       <use xlink:href="#DejaVuSans-31"/>
       <use xlink:href="#DejaVuSans-30" x="63.623047"/>
       <use xlink:href="#DejaVuSans-30" x="127.246094"/>
      </g>
     </g>
    </g>
    <g id="text_15">
     <!-- BMI -->
     <g style="fill: #262626" transform="translate(557.341875 235.995748) rotate(-90) scale(0.12 -0.12)">
      <use xlink:href="#DejaVuSans-42"/>
      <use xlink:href="#DejaVuSans-4d" x="68.603516"/>
      <use xlink:href="#DejaVuSans-49" x="154.882812"/>
     </g>
    </g>
   </g>
   <g id="patch_5">
    <path d="M 709.74375 318.265579 
L 949.38125 318.265579 
L 949.38125 288.840312 
L 709.74375 288.840312 
L 709.74375 318.265579 
z
" clip-path="url(#p619b4a2584)" style="fill: #3b6258; stroke: #2f2f2f; stroke-width: 1.5; stroke-linejoin: miter"/>
   </g>
   <g id="line2d_20">
    <path d="M 829.5625 318.265579 
L 829.5625 358.72532 
" clip-path="url(#p619b4a2584)" style="fill: none; stroke: #2f2f2f; stroke-width: 1.5; stroke-linecap: round"/>
   </g>
   <g id="line2d_21">
    <path d="M 829.5625 288.840312 
L 829.5625 244.702412 
" clip-path="url(#p619b4a2584)" style="fill: none; stroke: #2f2f2f; stroke-width: 1.5; stroke-linecap: round"/>
   </g>
   <g id="line2d_22">
    <path d="M 769.653125 358.72532 
L 889.471875 358.72532 
" clip-path="url(#p619b4a2584)" style="fill: none; stroke: #2f2f2f; stroke-width: 1.5; stroke-linecap: round"/>
   </g>
   <g id="line2d_23">
    <path d="M 769.653125 244.702412 
L 889.471875 244.702412 
" clip-path="url(#p619b4a2584)" style="fill: none; stroke: #2f2f2f; stroke-width: 1.5; stroke-linecap: round"/>
   </g>
   <g id="line2d_24">
    <g clip-path="url(#p619b4a2584)">
     <use xlink:href="#m5a6cd164ca" x="829.5625" y="231.215831" style="fill: #2f2f2f; stroke: #2f2f2f"/>
     <use xlink:href="#m5a6cd164ca" x="829.5625" y="236.426556" style="fill: #2f2f2f; stroke: #2f2f2f"/>
     <use xlink:href="#m5a6cd164ca" x="829.5625" y="228.457212" style="fill: #2f2f2f; stroke: #2f2f2f"/>
     <use xlink:href="#m5a6cd164ca" x="829.5625" y="228.763726" style="fill: #2f2f2f; stroke: #2f2f2f"/>
     <use xlink:href="#m5a6cd164ca" x="829.5625" y="212.825039" style="fill: #2f2f2f; stroke: #2f2f2f"/>
     <use xlink:href="#m5a6cd164ca" x="829.5625" y="226.618133" style="fill: #2f2f2f; stroke: #2f2f2f"/>
     <use xlink:href="#m5a6cd164ca" x="829.5625" y="241.63728" style="fill: #2f2f2f; stroke: #2f2f2f"/>
     <use xlink:href="#m5a6cd164ca" x="829.5625" y="203.629644" style="fill: #2f2f2f; stroke: #2f2f2f"/>
     <use xlink:href="#m5a6cd164ca" x="829.5625" y="239.491687" style="fill: #2f2f2f; stroke: #2f2f2f"/>
     <use xlink:href="#m5a6cd164ca" x="829.5625" y="243.169846" style="fill: #2f2f2f; stroke: #2f2f2f"/>
     <use xlink:href="#m5a6cd164ca" x="829.5625" y="237.652608" style="fill: #2f2f2f; stroke: #2f2f2f"/>
     <use xlink:href="#m5a6cd164ca" x="829.5625" y="225.39208" style="fill: #2f2f2f; stroke: #2f2f2f"/>
     <use xlink:href="#m5a6cd164ca" x="829.5625" y="196.273327" style="fill: #2f2f2f; stroke: #2f2f2f"/>
     <use xlink:href="#m5a6cd164ca" x="829.5625" y="243.782872" style="fill: #2f2f2f; stroke: #2f2f2f"/>
     <use xlink:href="#m5a6cd164ca" x="829.5625" y="239.185174" style="fill: #2f2f2f; stroke: #2f2f2f"/>
     <use xlink:href="#m5a6cd164ca" x="829.5625" y="235.507016" style="fill: #2f2f2f; stroke: #2f2f2f"/>
     <use xlink:href="#m5a6cd164ca" x="829.5625" y="228.763726" style="fill: #2f2f2f; stroke: #2f2f2f"/>
     <use xlink:href="#m5a6cd164ca" x="829.5625" y="191.675629" style="fill: #2f2f2f; stroke: #2f2f2f"/>
     <use xlink:href="#m5a6cd164ca" x="829.5625" y="236.426556" style="fill: #2f2f2f; stroke: #2f2f2f"/>
     <use xlink:href="#m5a6cd164ca" x="829.5625" y="224.166028" style="fill: #2f2f2f; stroke: #2f2f2f"/>
     <use xlink:href="#m5a6cd164ca" x="829.5625" y="234.280963" style="fill: #2f2f2f; stroke: #2f2f2f"/>
     <use xlink:href="#m5a6cd164ca" x="829.5625" y="243.476359" style="fill: #2f2f2f; stroke: #2f2f2f"/>
     <use xlink:href="#m5a6cd164ca" x="829.5625" y="235.200503" style="fill: #2f2f2f; stroke: #2f2f2f"/>
     <use xlink:href="#m5a6cd164ca" x="829.5625" y="228.150699" style="fill: #2f2f2f; stroke: #2f2f2f"/>
     <use xlink:href="#m5a6cd164ca" x="829.5625" y="243.782872" style="fill: #2f2f2f; stroke: #2f2f2f"/>
     <use xlink:href="#m5a6cd164ca" x="829.5625" y="219.56833" style="fill: #2f2f2f; stroke: #2f2f2f"/>
     <use xlink:href="#m5a6cd164ca" x="829.5625" y="229.376752" style="fill: #2f2f2f; stroke: #2f2f2f"/>
     <use xlink:href="#m5a6cd164ca" x="829.5625" y="222.633462" style="fill: #2f2f2f; stroke: #2f2f2f"/>
     <use xlink:href="#m5a6cd164ca" x="829.5625" y="108.30404" style="fill: #2f2f2f; stroke: #2f2f2f"/>
     <use xlink:href="#m5a6cd164ca" x="829.5625" y="214.970632" style="fill: #2f2f2f; stroke: #2f2f2f"/>
     <use xlink:href="#m5a6cd164ca" x="829.5625" y="214.970632" style="fill: #2f2f2f; stroke: #2f2f2f"/>
     <use xlink:href="#m5a6cd164ca" x="829.5625" y="235.813529" style="fill: #2f2f2f; stroke: #2f2f2f"/>
     <use xlink:href="#m5a6cd164ca" x="829.5625" y="213.438066" style="fill: #2f2f2f; stroke: #2f2f2f"/>
     <use xlink:href="#m5a6cd164ca" x="829.5625" y="222.939975" style="fill: #2f2f2f; stroke: #2f2f2f"/>
     <use xlink:href="#m5a6cd164ca" x="829.5625" y="235.200503" style="fill: #2f2f2f; stroke: #2f2f2f"/>
     <use xlink:href="#m5a6cd164ca" x="829.5625" y="241.024253" style="fill: #2f2f2f; stroke: #2f2f2f"/>
     <use xlink:href="#m5a6cd164ca" x="829.5625" y="237.652608" style="fill: #2f2f2f; stroke: #2f2f2f"/>
     <use xlink:href="#m5a6cd164ca" x="829.5625" y="222.939975" style="fill: #2f2f2f; stroke: #2f2f2f"/>
     <use xlink:href="#m5a6cd164ca" x="829.5625" y="244.395899" style="fill: #2f2f2f; stroke: #2f2f2f"/>
     <use xlink:href="#m5a6cd164ca" x="829.5625" y="228.457212" style="fill: #2f2f2f; stroke: #2f2f2f"/>
     <use xlink:href="#m5a6cd164ca" x="829.5625" y="237.652608" style="fill: #2f2f2f; stroke: #2f2f2f"/>
     <use xlink:href="#m5a6cd164ca" x="829.5625" y="219.56833" style="fill: #2f2f2f; stroke: #2f2f2f"/>
     <use xlink:href="#m5a6cd164ca" x="829.5625" y="239.185174" style="fill: #2f2f2f; stroke: #2f2f2f"/>
     <use xlink:href="#m5a6cd164ca" x="829.5625" y="221.713922" style="fill: #2f2f2f; stroke: #2f2f2f"/>
     <use xlink:href="#m5a6cd164ca" x="829.5625" y="226.31162" style="fill: #2f2f2f; stroke: #2f2f2f"/>
     <use xlink:href="#m5a6cd164ca" x="829.5625" y="237.346095" style="fill: #2f2f2f; stroke: #2f2f2f"/>
     <use xlink:href="#m5a6cd164ca" x="829.5625" y="241.63728" style="fill: #2f2f2f; stroke: #2f2f2f"/>
     <use xlink:href="#m5a6cd164ca" x="829.5625" y="242.250306" style="fill: #2f2f2f; stroke: #2f2f2f"/>
     <use xlink:href="#m5a6cd164ca" x="829.5625" y="234.587476" style="fill: #2f2f2f; stroke: #2f2f2f"/>
     <use xlink:href="#m5a6cd164ca" x="829.5625" y="219.56833" style="fill: #2f2f2f; stroke: #2f2f2f"/>
     <use xlink:href="#m5a6cd164ca" x="829.5625" y="218.955303" style="fill: #2f2f2f; stroke: #2f2f2f"/>
     <use xlink:href="#m5a6cd164ca" x="829.5625" y="218.64879" style="fill: #2f2f2f; stroke: #2f2f2f"/>
     <use xlink:href="#m5a6cd164ca" x="829.5625" y="244.395899" style="fill: #2f2f2f; stroke: #2f2f2f"/>
     <use xlink:href="#m5a6cd164ca" x="829.5625" y="202.710104" style="fill: #2f2f2f; stroke: #2f2f2f"/>
     <use xlink:href="#m5a6cd164ca" x="829.5625" y="240.71774" style="fill: #2f2f2f; stroke: #2f2f2f"/>
     <use xlink:href="#m5a6cd164ca" x="829.5625" y="228.457212" style="fill: #2f2f2f; stroke: #2f2f2f"/>
     <use xlink:href="#m5a6cd164ca" x="829.5625" y="233.97445" style="fill: #2f2f2f; stroke: #2f2f2f"/>
     <use xlink:href="#m5a6cd164ca" x="829.5625" y="241.943793" style="fill: #2f2f2f; stroke: #2f2f2f"/>
     <use xlink:href="#m5a6cd164ca" x="829.5625" y="238.572148" style="fill: #2f2f2f; stroke: #2f2f2f"/>
     <use xlink:href="#m5a6cd164ca" x="829.5625" y="219.56833" style="fill: #2f2f2f; stroke: #2f2f2f"/>
     <use xlink:href="#m5a6cd164ca" x="829.5625" y="224.779054" style="fill: #2f2f2f; stroke: #2f2f2f"/>
     <use xlink:href="#m5a6cd164ca" x="829.5625" y="244.395899" style="fill: #2f2f2f; stroke: #2f2f2f"/>
     <use xlink:href="#m5a6cd164ca" x="829.5625" y="185.545365" style="fill: #2f2f2f; stroke: #2f2f2f"/>
     <use xlink:href="#m5a6cd164ca" x="829.5625" y="214.051092" style="fill: #2f2f2f; stroke: #2f2f2f"/>
     <use xlink:href="#m5a6cd164ca" x="829.5625" y="226.618133" style="fill: #2f2f2f; stroke: #2f2f2f"/>
     <use xlink:href="#m5a6cd164ca" x="829.5625" y="240.71774" style="fill: #2f2f2f; stroke: #2f2f2f"/>
     <use xlink:href="#m5a6cd164ca" x="829.5625" y="239.185174" style="fill: #2f2f2f; stroke: #2f2f2f"/>
     <use xlink:href="#m5a6cd164ca" x="829.5625" y="223.859515" style="fill: #2f2f2f; stroke: #2f2f2f"/>
     <use xlink:href="#m5a6cd164ca" x="829.5625" y="236.426556" style="fill: #2f2f2f; stroke: #2f2f2f"/>
     <use xlink:href="#m5a6cd164ca" x="829.5625" y="207.307802" style="fill: #2f2f2f; stroke: #2f2f2f"/>
     <use xlink:href="#m5a6cd164ca" x="829.5625" y="242.863333" style="fill: #2f2f2f; stroke: #2f2f2f"/>
     <use xlink:href="#m5a6cd164ca" x="829.5625" y="224.472541" style="fill: #2f2f2f; stroke: #2f2f2f"/>
     <use xlink:href="#m5a6cd164ca" x="829.5625" y="231.215831" style="fill: #2f2f2f; stroke: #2f2f2f"/>
     <use xlink:href="#m5a6cd164ca" x="829.5625" y="221.713922" style="fill: #2f2f2f; stroke: #2f2f2f"/>
     <use xlink:href="#m5a6cd164ca" x="829.5625" y="242.556819" style="fill: #2f2f2f; stroke: #2f2f2f"/>
     <use xlink:href="#m5a6cd164ca" x="829.5625" y="218.955303" style="fill: #2f2f2f; stroke: #2f2f2f"/>
     <use xlink:href="#m5a6cd164ca" x="829.5625" y="225.085567" style="fill: #2f2f2f; stroke: #2f2f2f"/>
     <use xlink:href="#m5a6cd164ca" x="829.5625" y="192.901682" style="fill: #2f2f2f; stroke: #2f2f2f"/>
     <use xlink:href="#m5a6cd164ca" x="829.5625" y="91.139301" style="fill: #2f2f2f; stroke: #2f2f2f"/>
     <use xlink:href="#m5a6cd164ca" x="829.5625" y="221.100896" style="fill: #2f2f2f; stroke: #2f2f2f"/>
     <use xlink:href="#m5a6cd164ca" x="829.5625" y="218.342277" style="fill: #2f2f2f; stroke: #2f2f2f"/>
     <use xlink:href="#m5a6cd164ca" x="829.5625" y="232.441884" style="fill: #2f2f2f; stroke: #2f2f2f"/>
     <use xlink:href="#m5a6cd164ca" x="829.5625" y="151.215887" style="fill: #2f2f2f; stroke: #2f2f2f"/>
     <use xlink:href="#m5a6cd164ca" x="829.5625" y="216.809711" style="fill: #2f2f2f; stroke: #2f2f2f"/>
     <use xlink:href="#m5a6cd164ca" x="829.5625" y="236.426556" style="fill: #2f2f2f; stroke: #2f2f2f"/>
     <use xlink:href="#m5a6cd164ca" x="829.5625" y="236.733069" style="fill: #2f2f2f; stroke: #2f2f2f"/>
     <use xlink:href="#m5a6cd164ca" x="829.5625" y="203.629644" style="fill: #2f2f2f; stroke: #2f2f2f"/>
     <use xlink:href="#m5a6cd164ca" x="829.5625" y="231.828858" style="fill: #2f2f2f; stroke: #2f2f2f"/>
     <use xlink:href="#m5a6cd164ca" x="829.5625" y="212.212013" style="fill: #2f2f2f; stroke: #2f2f2f"/>
     <use xlink:href="#m5a6cd164ca" x="829.5625" y="238.572148" style="fill: #2f2f2f; stroke: #2f2f2f"/>
     <use xlink:href="#m5a6cd164ca" x="829.5625" y="205.775236" style="fill: #2f2f2f; stroke: #2f2f2f"/>
     <use xlink:href="#m5a6cd164ca" x="829.5625" y="236.120042" style="fill: #2f2f2f; stroke: #2f2f2f"/>
    </g>
   </g>
   <g id="line2d_25">
    <path d="M 709.74375 304.778998 
L 949.38125 304.778998 
" clip-path="url(#p619b4a2584)" style="fill: none; stroke: #2f2f2f; stroke-width: 1.5; stroke-linecap: round"/>
   </g>
  </g>
  <g id="axes_3">
   <g id="patch_6">
    <path d="M 56.9 678.04 
L 536.175 678.04 
L 536.175 383.695379 
L 56.9 383.695379 
z
" style="fill: #ffffff"/>
   </g>
   <g id="matplotlib.axis_3">
    <g id="xtick_1">
     <g id="text_16">
      <!-- 10 -->
      <g style="fill: #262626" transform="translate(51.672326 692.638438) scale(0.1 -0.1)">
       <use xlink:href="#DejaVuSans-31"/>
       <use xlink:href="#DejaVuSans-30" x="63.623047"/>
      </g>
     </g>
    </g>
    <g id="xtick_2">
     <g id="text_17">
      <!-- 20 -->
      <g style="fill: #262626" transform="translate(136.851852 692.638438) scale(0.1 -0.1)">
       <use xlink:href="#DejaVuSans-32"/>
       <use xlink:href="#DejaVuSans-30" x="63.623047"/>
      </g>
     </g>
    </g>
    <g id="xtick_3">
     <g id="text_18">
      <!-- 30 -->
      <g style="fill: #262626" transform="translate(222.031379 692.638438) scale(0.1 -0.1)">
       <use xlink:href="#DejaVuSans-33"/>
       <use xlink:href="#DejaVuSans-30" x="63.623047"/>
      </g>
     </g>
    </g>
    <g id="xtick_4">
     <g id="text_19">
      <!-- 40 -->
      <g style="fill: #262626" transform="translate(307.210905 692.638438) scale(0.1 -0.1)">
       <use xlink:href="#DejaVuSans-34"/>
       <use xlink:href="#DejaVuSans-30" x="63.623047"/>
      </g>
     </g>
    </g>
    <g id="xtick_5">
     <g id="text_20">
      <!-- 50 -->
      <g style="fill: #262626" transform="translate(392.390432 692.638438) scale(0.1 -0.1)">
       <use xlink:href="#DejaVuSans-35"/>
       <use xlink:href="#DejaVuSans-30" x="63.623047"/>
      </g>
     </g>
    </g>
    <g id="xtick_6">
     <g id="text_21">
      <!-- 60 -->
      <g style="fill: #262626" transform="translate(477.569958 692.638438) scale(0.1 -0.1)">
       <use xlink:href="#DejaVuSans-36"/>
       <use xlink:href="#DejaVuSans-30" x="63.623047"/>
      </g>
     </g>
    </g>
    <g id="text_22">
     <!-- Schlaganfall -->
     <g style="fill: #262626" transform="translate(265.982813 706.316563) scale(0.1 -0.1)">
      <defs>
       <path id="DejaVuSans-53" d="M 3425 4513 
L 3425 3897 
Q 3066 4069 2747 4153 
Q 2428 4238 2131 4238 
Q 1616 4238 1336 4038 
Q 1056 3838 1056 3469 
Q 1056 3159 1242 3001 
Q 1428 2844 1947 2747 
L 2328 2669 
Q 3034 2534 3370 2195 
Q 3706 1856 3706 1288 
Q 3706 609 3251 259 
Q 2797 -91 1919 -91 
Q 1588 -91 1214 -16 
Q 841 59 441 206 
L 441 856 
Q 825 641 1194 531 
Q 1563 422 1919 422 
Q 2459 422 2753 634 
Q 3047 847 3047 1241 
Q 3047 1584 2836 1778 
Q 2625 1972 2144 2069 
L 1759 2144 
Q 1053 2284 737 2584 
Q 422 2884 422 3419 
Q 422 4038 858 4394 
Q 1294 4750 2059 4750 
Q 2388 4750 2728 4690 
Q 3069 4631 3425 4513 
z
" transform="scale(0.015625)"/>
       <path id="DejaVuSans-63" d="M 3122 3366 
L 3122 2828 
Q 2878 2963 2633 3030 
Q 2388 3097 2138 3097 
Q 1578 3097 1268 2742 
Q 959 2388 959 1747 
Q 959 1106 1268 751 
Q 1578 397 2138 397 
Q 2388 397 2633 464 
Q 2878 531 3122 666 
L 3122 134 
Q 2881 22 2623 -34 
Q 2366 -91 2075 -91 
Q 1284 -91 818 406 
Q 353 903 353 1747 
Q 353 2603 823 3093 
Q 1294 3584 2113 3584 
Q 2378 3584 2631 3529 
Q 2884 3475 3122 3366 
z
" transform="scale(0.015625)"/>
       <path id="DejaVuSans-68" d="M 3513 2113 
L 3513 0 
L 2938 0 
L 2938 2094 
Q 2938 2591 2744 2837 
Q 2550 3084 2163 3084 
Q 1697 3084 1428 2787 
Q 1159 2491 1159 1978 
L 1159 0 
L 581 0 
L 581 4863 
L 1159 4863 
L 1159 2956 
Q 1366 3272 1645 3428 
Q 1925 3584 2291 3584 
Q 2894 3584 3203 3211 
Q 3513 2838 3513 2113 
z
" transform="scale(0.015625)"/>
       <path id="DejaVuSans-6c" d="M 603 4863 
L 1178 4863 
L 1178 0 
L 603 0 
L 603 4863 
z
" transform="scale(0.015625)"/>
       <path id="DejaVuSans-61" d="M 2194 1759 
Q 1497 1759 1228 1600 
Q 959 1441 959 1056 
Q 959 750 1161 570 
Q 1363 391 1709 391 
Q 2188 391 2477 730 
Q 2766 1069 2766 1631 
L 2766 1759 
L 2194 1759 
z
M 3341 1997 
L 3341 0 
L 2766 0 
L 2766 531 
Q 2569 213 2275 61 
Q 1981 -91 1556 -91 
Q 1019 -91 701 211 
Q 384 513 384 1019 
Q 384 1609 779 1909 
Q 1175 2209 1959 2209 
L 2766 2209 
L 2766 2266 
Q 2766 2663 2505 2880 
Q 2244 3097 1772 3097 
Q 1472 3097 1187 3025 
Q 903 2953 641 2809 
L 641 3341 
Q 956 3463 1253 3523 
Q 1550 3584 1831 3584 
Q 2591 3584 2966 3190 
Q 3341 2797 3341 1997 
z
" transform="scale(0.015625)"/>
       <path id="DejaVuSans-67" d="M 2906 1791 
Q 2906 2416 2648 2759 
Q 2391 3103 1925 3103 
Q 1463 3103 1205 2759 
Q 947 2416 947 1791 
Q 947 1169 1205 825 
Q 1463 481 1925 481 
Q 2391 481 2648 825 
Q 2906 1169 2906 1791 
z
M 3481 434 
Q 3481 -459 3084 -895 
Q 2688 -1331 1869 -1331 
Q 1566 -1331 1297 -1286 
Q 1028 -1241 775 -1147 
L 775 -588 
Q 1028 -725 1275 -790 
Q 1522 -856 1778 -856 
Q 2344 -856 2625 -561 
Q 2906 -266 2906 331 
L 2906 616 
Q 2728 306 2450 153 
Q 2172 0 1784 0 
Q 1141 0 747 490 
Q 353 981 353 1791 
Q 353 2603 747 3093 
Q 1141 3584 1784 3584 
Q 2172 3584 2450 3431 
Q 2728 3278 2906 2969 
L 2906 3500 
L 3481 3500 
L 3481 434 
z
" transform="scale(0.015625)"/>
       <path id="DejaVuSans-6e" d="M 3513 2113 
L 3513 0 
L 2938 0 
L 2938 2094 
Q 2938 2591 2744 2837 
Q 2550 3084 2163 3084 
Q 1697 3084 1428 2787 
Q 1159 2491 1159 1978 
L 1159 0 
L 581 0 
L 581 3500 
L 1159 3500 
L 1159 2956 
Q 1366 3272 1645 3428 
Q 1925 3584 2291 3584 
Q 2894 3584 3203 3211 
Q 3513 2838 3513 2113 
z
" transform="scale(0.015625)"/>
       <path id="DejaVuSans-66" d="M 2375 4863 
L 2375 4384 
L 1825 4384 
Q 1516 4384 1395 4259 
Q 1275 4134 1275 3809 
L 1275 3500 
L 2222 3500 
L 2222 3053 
L 1275 3053 
L 1275 0 
L 697 0 
L 697 3053 
L 147 3053 
L 147 3500 
L 697 3500 
L 697 3744 
Q 697 4328 969 4595 
Q 1241 4863 1831 4863 
L 2375 4863 
z
" transform="scale(0.015625)"/>
      </defs>
      <use xlink:href="#DejaVuSans-53"/>
      <use xlink:href="#DejaVuSans-63" x="63.476562"/>
      <use xlink:href="#DejaVuSans-68" x="118.457031"/>
      <use xlink:href="#DejaVuSans-6c" x="181.835938"/>
      <use xlink:href="#DejaVuSans-61" x="209.619141"/>
      <use xlink:href="#DejaVuSans-67" x="270.898438"/>
      <use xlink:href="#DejaVuSans-61" x="334.375"/>
      <use xlink:href="#DejaVuSans-6e" x="395.654297"/>
      <use xlink:href="#DejaVuSans-66" x="459.033203"/>
      <use xlink:href="#DejaVuSans-61" x="494.238281"/>
      <use xlink:href="#DejaVuSans-6c" x="555.517578"/>
      <use xlink:href="#DejaVuSans-6c" x="583.300781"/>
     </g>
    </g>
   </g>
   <g id="matplotlib.axis_4">
    <g id="ytick_14">
     <g id="text_23">
      <!-- 0.00 -->
      <g style="fill: #262626" transform="translate(27.634375 681.839219) scale(0.1 -0.1)">
       <defs>
        <path id="DejaVuSans-2e" d="M 684 794 
L 1344 794 
L 1344 0 
L 684 0 
L 684 794 
z
" transform="scale(0.015625)"/>
       </defs>
       <use xlink:href="#DejaVuSans-30"/>
       <use xlink:href="#DejaVuSans-2e" x="63.623047"/>
       <use xlink:href="#DejaVuSans-30" x="95.410156"/>
       <use xlink:href="#DejaVuSans-30" x="159.033203"/>
      </g>
     </g>
    </g>
    <g id="ytick_15">
     <g id="text_24">
      <!-- 0.01 -->
      <g style="fill: #262626" transform="translate(27.634375 640.318813) scale(0.1 -0.1)">
       <use xlink:href="#DejaVuSans-30"/>
       <use xlink:href="#DejaVuSans-2e" x="63.623047"/>
       <use xlink:href="#DejaVuSans-30" x="95.410156"/>
       <use xlink:href="#DejaVuSans-31" x="159.033203"/>
      </g>
     </g>
    </g>
    <g id="ytick_16">
     <g id="text_25">
      <!-- 0.02 -->
      <g style="fill: #262626" transform="translate(27.634375 598.798408) scale(0.1 -0.1)">
       <use xlink:href="#DejaVuSans-30"/>
       <use xlink:href="#DejaVuSans-2e" x="63.623047"/>
       <use xlink:href="#DejaVuSans-30" x="95.410156"/>
       <use xlink:href="#DejaVuSans-32" x="159.033203"/>
      </g>
     </g>
    </g>
    <g id="ytick_17">
     <g id="text_26">
      <!-- 0.03 -->
      <g style="fill: #262626" transform="translate(27.634375 557.278003) scale(0.1 -0.1)">
       <use xlink:href="#DejaVuSans-30"/>
       <use xlink:href="#DejaVuSans-2e" x="63.623047"/>
       <use xlink:href="#DejaVuSans-30" x="95.410156"/>
       <use xlink:href="#DejaVuSans-33" x="159.033203"/>
      </g>
     </g>
    </g>
    <g id="ytick_18">
     <g id="text_27">
      <!-- 0.04 -->
      <g style="fill: #262626" transform="translate(27.634375 515.757597) scale(0.1 -0.1)">
       <use xlink:href="#DejaVuSans-30"/>
       <use xlink:href="#DejaVuSans-2e" x="63.623047"/>
       <use xlink:href="#DejaVuSans-30" x="95.410156"/>
       <use xlink:href="#DejaVuSans-34" x="159.033203"/>
      </g>
     </g>
    </g>
    <g id="ytick_19">
     <g id="text_28">
      <!-- 0.05 -->
      <g style="fill: #262626" transform="translate(27.634375 474.237192) scale(0.1 -0.1)">
       <use xlink:href="#DejaVuSans-30"/>
       <use xlink:href="#DejaVuSans-2e" x="63.623047"/>
       <use xlink:href="#DejaVuSans-30" x="95.410156"/>
       <use xlink:href="#DejaVuSans-35" x="159.033203"/>
      </g>
     </g>
    </g>
    <g id="ytick_20">
     <g id="text_29">
      <!-- 0.06 -->
      <g style="fill: #262626" transform="translate(27.634375 432.716787) scale(0.1 -0.1)">
       <use xlink:href="#DejaVuSans-30"/>
       <use xlink:href="#DejaVuSans-2e" x="63.623047"/>
       <use xlink:href="#DejaVuSans-30" x="95.410156"/>
       <use xlink:href="#DejaVuSans-36" x="159.033203"/>
      </g>
     </g>
    </g>
    <g id="ytick_21">
     <g id="text_30">
      <!-- 0.07 -->
      <g style="fill: #262626" transform="translate(27.634375 391.196381) scale(0.1 -0.1)">
       <defs>
        <path id="DejaVuSans-37" d="M 525 4666 
L 3525 4666 
L 3525 4397 
L 1831 0 
L 1172 0 
L 2766 4134 
L 525 4134 
L 525 4666 
z
" transform="scale(0.015625)"/>
       </defs>
       <use xlink:href="#DejaVuSans-30"/>
       <use xlink:href="#DejaVuSans-2e" x="63.623047"/>
       <use xlink:href="#DejaVuSans-30" x="95.410156"/>
       <use xlink:href="#DejaVuSans-37" x="159.033203"/>
      </g>
     </g>
    </g>
    <g id="text_31">
     <!-- Dichte -->
     <g style="fill: #262626" transform="translate(21.13875 550.300189) rotate(-90) scale(0.12 -0.12)">
      <defs>
       <path id="DejaVuSans-44" d="M 1259 4147 
L 1259 519 
L 2022 519 
Q 2988 519 3436 956 
Q 3884 1394 3884 2338 
Q 3884 3275 3436 3711 
Q 2988 4147 2022 4147 
L 1259 4147 
z
M 628 4666 
L 1925 4666 
Q 3281 4666 3915 4102 
Q 4550 3538 4550 2338 
Q 4550 1131 3912 565 
Q 3275 0 1925 0 
L 628 0 
L 628 4666 
z
" transform="scale(0.015625)"/>
       <path id="DejaVuSans-69" d="M 603 3500 
L 1178 3500 
L 1178 0 
L 603 0 
L 603 3500 
z
M 603 4863 
L 1178 4863 
L 1178 4134 
L 603 4134 
L 603 4863 
z
" transform="scale(0.015625)"/>
       <path id="DejaVuSans-74" d="M 1172 4494 
L 1172 3500 
L 2356 3500 
L 2356 3053 
L 1172 3053 
L 1172 1153 
Q 1172 725 1289 603 
Q 1406 481 1766 481 
L 2356 481 
L 2356 0 
L 1766 0 
Q 1100 0 847 248 
Q 594 497 594 1153 
L 594 3053 
L 172 3053 
L 172 3500 
L 594 3500 
L 594 4494 
L 1172 4494 
z
" transform="scale(0.015625)"/>
       <path id="DejaVuSans-65" d="M 3597 1894 
L 3597 1613 
L 953 1613 
Q 991 1019 1311 708 
Q 1631 397 2203 397 
Q 2534 397 2845 478 
Q 3156 559 3463 722 
L 3463 178 
Q 3153 47 2828 -22 
Q 2503 -91 2169 -91 
Q 1331 -91 842 396 
Q 353 884 353 1716 
Q 353 2575 817 3079 
Q 1281 3584 2069 3584 
Q 2775 3584 3186 3129 
Q 3597 2675 3597 1894 
z
M 3022 2063 
Q 3016 2534 2758 2815 
Q 2500 3097 2075 3097 
Q 1594 3097 1305 2825 
Q 1016 2553 972 2059 
L 3022 2063 
z
" transform="scale(0.015625)"/>
      </defs>
      <use xlink:href="#DejaVuSans-44"/>
      <use xlink:href="#DejaVuSans-69" x="77.001953"/>
      <use xlink:href="#DejaVuSans-63" x="104.785156"/>
      <use xlink:href="#DejaVuSans-68" x="159.765625"/>
      <use xlink:href="#DejaVuSans-74" x="223.144531"/>
      <use xlink:href="#DejaVuSans-65" x="262.353516"/>
     </g>
    </g>
   </g>
   <g id="line2d_26">
    <path d="M 78.685227 677.919495 
L 85.253638 677.702215 
L 89.632578 677.404442 
L 94.011518 676.894791 
L 98.390458 676.062173 
L 100.579928 675.481044 
L 102.769398 674.762819 
L 104.958868 673.885019 
L 107.148338 672.82394 
L 109.337808 671.555125 
L 111.527278 670.053928 
L 113.716749 668.296135 
L 115.906219 666.258616 
L 118.095689 663.919969 
L 120.285159 661.261126 
L 122.474629 658.265872 
L 124.664099 654.921276 
L 126.853569 651.217988 
L 129.043039 647.150415 
L 131.232509 642.716784 
L 133.421979 637.919094 
L 135.611449 632.762997 
L 137.800919 627.257628 
L 139.990389 621.415394 
L 144.36933 608.785036 
L 148.74827 595.028008 
L 153.12721 580.336195 
L 157.50615 564.923892 
L 164.07456 540.927194 
L 183.779791 468.107975 
L 188.158731 452.919389 
L 192.537671 438.760979 
L 194.727141 432.214385 
L 196.916611 426.104982 
L 199.106082 420.491883 
L 201.295552 415.428489 
L 203.485022 410.959671 
L 205.674492 407.119565 
L 207.863962 403.930229 
L 210.053432 401.40132 
L 212.242902 399.530821 
L 214.432372 398.306716 
L 216.621842 397.709389 
L 218.811312 397.714462 
L 221.000782 398.295698 
L 223.190252 399.427623 
L 225.379722 401.087569 
L 227.569193 403.256896 
L 229.758663 405.921301 
L 231.948133 409.070219 
L 234.137603 412.695439 
L 236.327073 416.789177 
L 238.516543 421.341866 
L 240.706013 426.339996 
L 242.895483 431.764273 
L 245.084953 437.588339 
L 249.463893 450.292458 
L 253.842833 464.097633 
L 260.411244 485.924638 
L 266.979654 507.830359 
L 271.358594 521.931666 
L 275.737534 535.39832 
L 280.116474 548.128995 
L 284.495415 560.071298 
L 288.874355 571.187094 
L 293.253295 581.432387 
L 297.632235 590.75654 
L 302.011175 599.116376 
L 304.200645 602.927896 
L 306.390115 606.494776 
L 308.579585 609.820944 
L 310.769056 612.91277 
L 312.958526 615.778719 
L 315.147996 618.42886 
L 317.337466 620.874279 
L 319.526936 623.126506 
L 321.716406 625.196999 
L 323.905876 627.096782 
L 326.095346 628.83626 
L 328.284816 630.425231 
L 332.663756 633.189211 
L 337.042696 635.466228 
L 341.421637 637.34789 
L 345.800577 638.951013 
L 356.747927 642.705588 
L 361.126867 644.491085 
L 365.505807 646.593693 
L 369.884748 649.040134 
L 374.263688 651.795992 
L 380.832098 656.317519 
L 389.589978 662.447575 
L 393.968918 665.292881 
L 398.347859 667.865288 
L 402.726799 670.09763 
L 407.105739 671.945186 
L 411.484679 673.384575 
L 415.863619 674.412762 
L 420.242559 675.046513 
L 424.6215 675.322206 
L 429.00044 675.295523 
L 433.37938 675.04015 
L 450.89514 673.555743 
L 455.274081 673.482908 
L 459.653021 673.61829 
L 464.031961 673.949284 
L 470.600371 674.715409 
L 485.926662 676.702193 
L 492.495072 677.285947 
L 499.063482 677.659241 
L 507.821362 677.910972 
L 514.389773 677.989594 
L 514.389773 677.989594 
" clip-path="url(#pe079318cb0)" style="fill: none; stroke: #f16800; stroke-width: 1.5; stroke-linecap: round"/>
   </g>
  </g>
  <g id="axes_4">
   <g id="patch_7">
    <path d="M 589.925 678.04 
L 1069.2 678.04 
L 1069.2 383.695379 
L 589.925 383.695379 
z
" style="fill: #ffffff"/>
   </g>
   <g id="matplotlib.axis_5">
    <g id="xtick_7">
     <g id="text_32">
      <!-- 20 -->
      <g style="fill: #262626" transform="translate(669.911697 692.638438) scale(0.1 -0.1)">
       <use xlink:href="#DejaVuSans-32"/>
       <use xlink:href="#DejaVuSans-30" x="63.623047"/>
      </g>
     </g>
    </g>
    <g id="xtick_8">
     <g id="text_33">
      <!-- 40 -->
      <g style="fill: #262626" transform="translate(760.214085 692.638438) scale(0.1 -0.1)">
       <use xlink:href="#DejaVuSans-34"/>
       <use xlink:href="#DejaVuSans-30" x="63.623047"/>
      </g>
     </g>
    </g>
    <g id="xtick_9">
     <g id="text_34">
      <!-- 60 -->
      <g style="fill: #262626" transform="translate(850.516472 692.638438) scale(0.1 -0.1)">
       <use xlink:href="#DejaVuSans-36"/>
       <use xlink:href="#DejaVuSans-30" x="63.623047"/>
      </g>
     </g>
    </g>
    <g id="xtick_10">
     <g id="text_35">
      <!-- 80 -->
      <g style="fill: #262626" transform="translate(940.81886 692.638438) scale(0.1 -0.1)">
       <use xlink:href="#DejaVuSans-38"/>
       <use xlink:href="#DejaVuSans-30" x="63.623047"/>
      </g>
     </g>
    </g>
    <g id="xtick_11">
     <g id="text_36">
      <!-- 100 -->
      <g style="fill: #262626" transform="translate(1027.939997 692.638438) scale(0.1 -0.1)">
       <use xlink:href="#DejaVuSans-31"/>
       <use xlink:href="#DejaVuSans-30" x="63.623047"/>
       <use xlink:href="#DejaVuSans-30" x="127.246094"/>
      </g>
     </g>
    </g>
    <g id="text_37">
     <!-- Kein Schlaganfall -->
     <g style="fill: #262626" transform="translate(786.755469 706.316563) scale(0.1 -0.1)">
      <defs>
       <path id="DejaVuSans-4b" d="M 628 4666 
L 1259 4666 
L 1259 2694 
L 3353 4666 
L 4166 4666 
L 1850 2491 
L 4331 0 
L 3500 0 
L 1259 2247 
L 1259 0 
L 628 0 
L 628 4666 
z
" transform="scale(0.015625)"/>
       <path id="DejaVuSans-20" transform="scale(0.015625)"/>
      </defs>
      <use xlink:href="#DejaVuSans-4b"/>
      <use xlink:href="#DejaVuSans-65" x="60.576172"/>
      <use xlink:href="#DejaVuSans-69" x="122.099609"/>
      <use xlink:href="#DejaVuSans-6e" x="149.882812"/>
      <use xlink:href="#DejaVuSans-20" x="213.261719"/>
      <use xlink:href="#DejaVuSans-53" x="245.048828"/>
      <use xlink:href="#DejaVuSans-63" x="308.525391"/>
      <use xlink:href="#DejaVuSans-68" x="363.505859"/>
      <use xlink:href="#DejaVuSans-6c" x="426.884766"/>
      <use xlink:href="#DejaVuSans-61" x="454.667969"/>
      <use xlink:href="#DejaVuSans-67" x="515.947266"/>
      <use xlink:href="#DejaVuSans-61" x="579.423828"/>
      <use xlink:href="#DejaVuSans-6e" x="640.703125"/>
      <use xlink:href="#DejaVuSans-66" x="704.082031"/>
      <use xlink:href="#DejaVuSans-61" x="739.287109"/>
      <use xlink:href="#DejaVuSans-6c" x="800.566406"/>
      <use xlink:href="#DejaVuSans-6c" x="828.349609"/>
     </g>
    </g>
   </g>
   <g id="line2d_27">
    <path d="M 611.710227 678.035755 
L 620.468108 677.937773 
L 624.847048 677.729029 
L 629.225988 677.268908 
L 631.415458 676.864816 
L 633.604928 676.251455 
L 635.794398 675.3085 
L 637.983868 673.874087 
L 640.173338 671.758335 
L 642.362808 668.766048 
L 644.552278 664.720303 
L 646.741749 659.480476 
L 648.931219 652.955725 
L 651.120689 645.120861 
L 653.310159 636.038021 
L 655.499629 625.875501 
L 659.878569 603.467489 
L 666.446979 569.330208 
L 670.825919 547.933032 
L 681.77327 495.593306 
L 686.15221 472.30975 
L 690.53115 448.207123 
L 692.72062 437.142049 
L 694.91009 427.435743 
L 697.09956 419.299732 
L 699.28903 412.647935 
L 701.4785 407.242769 
L 703.667971 402.908274 
L 705.857441 399.681705 
L 708.046911 397.825042 
L 710.236381 397.711788 
L 712.425851 399.669134 
L 714.615321 403.853335 
L 716.804791 410.191818 
L 718.994261 418.389507 
L 721.183731 427.988639 
L 725.562671 449.370532 
L 732.131082 481.99525 
L 736.510022 502.634995 
L 740.888962 521.790891 
L 745.267902 539.752982 
L 749.646842 556.987472 
L 751.836312 565.121587 
L 754.025782 572.697186 
L 756.215252 579.597889 
L 758.404722 585.835386 
L 760.594193 591.546949 
L 764.973133 602.162196 
L 769.352073 612.320016 
L 771.541543 617.06623 
L 773.731013 621.41124 
L 775.920483 625.297163 
L 780.299423 632.08011 
L 782.488893 635.398397 
L 784.678363 638.937751 
L 789.057304 646.757933 
L 791.246774 650.702397 
L 793.436244 654.315063 
L 795.625714 657.370653 
L 797.815184 659.760554 
L 800.004654 661.505813 
L 802.194124 662.725737 
L 804.383594 663.587694 
L 813.141474 666.323127 
L 817.520415 667.861756 
L 819.709885 668.467402 
L 821.899355 668.875377 
L 824.088825 669.088868 
L 832.846705 669.487576 
L 835.036175 669.848083 
L 837.225645 670.375554 
L 841.604585 671.82632 
L 848.172996 674.181252 
L 850.362466 674.785727 
L 852.551936 675.244652 
L 856.930876 675.788735 
L 870.067696 676.746159 
L 885.393987 677.302709 
L 896.341337 677.868562 
L 905.099218 678.025911 
L 922.614978 678.012692 
L 931.372859 677.830187 
L 937.941269 677.701288 
L 944.509679 677.817762 
L 953.267559 678.00877 
L 970.78332 678.039975 
L 990.488551 677.941328 
L 1003.625371 677.717415 
L 1016.762192 677.889218 
L 1027.709542 677.704855 
L 1047.414773 678.036236 
L 1047.414773 678.036236 
" clip-path="url(#pf400f7af1f)" style="fill: none; stroke: #f16800; stroke-width: 1.5; stroke-linecap: round"/>
   </g>
  </g>
  <g id="text_38">
   <!-- Verteilung des Schlaganfalls mit dem Merkmal BMI -->
   <g style="fill: #262626" transform="translate(251.951562 29.596875) scale(0.2 -0.2)">
    <defs>
     <path id="DejaVuSans-Bold-56" d="M 31 4666 
L 1241 4666 
L 2478 1222 
L 3713 4666 
L 4922 4666 
L 3194 0 
L 1759 0 
L 31 4666 
z
" transform="scale(0.015625)"/>
     <path id="DejaVuSans-Bold-65" d="M 4031 1759 
L 4031 1441 
L 1416 1441 
Q 1456 1047 1700 850 
Q 1944 653 2381 653 
Q 2734 653 3104 758 
Q 3475 863 3866 1075 
L 3866 213 
Q 3469 63 3072 -14 
Q 2675 -91 2278 -91 
Q 1328 -91 801 392 
Q 275 875 275 1747 
Q 275 2603 792 3093 
Q 1309 3584 2216 3584 
Q 3041 3584 3536 3087 
Q 4031 2591 4031 1759 
z
M 2881 2131 
Q 2881 2450 2695 2645 
Q 2509 2841 2209 2841 
Q 1884 2841 1681 2658 
Q 1478 2475 1428 2131 
L 2881 2131 
z
" transform="scale(0.015625)"/>
     <path id="DejaVuSans-Bold-72" d="M 3138 2547 
Q 2991 2616 2845 2648 
Q 2700 2681 2553 2681 
Q 2122 2681 1889 2404 
Q 1656 2128 1656 1613 
L 1656 0 
L 538 0 
L 538 3500 
L 1656 3500 
L 1656 2925 
Q 1872 3269 2151 3426 
Q 2431 3584 2822 3584 
Q 2878 3584 2943 3579 
Q 3009 3575 3134 3559 
L 3138 2547 
z
" transform="scale(0.015625)"/>
     <path id="DejaVuSans-Bold-74" d="M 1759 4494 
L 1759 3500 
L 2913 3500 
L 2913 2700 
L 1759 2700 
L 1759 1216 
Q 1759 972 1856 886 
Q 1953 800 2241 800 
L 2816 800 
L 2816 0 
L 1856 0 
Q 1194 0 917 276 
Q 641 553 641 1216 
L 641 2700 
L 84 2700 
L 84 3500 
L 641 3500 
L 641 4494 
L 1759 4494 
z
" transform="scale(0.015625)"/>
     <path id="DejaVuSans-Bold-69" d="M 538 3500 
L 1656 3500 
L 1656 0 
L 538 0 
L 538 3500 
z
M 538 4863 
L 1656 4863 
L 1656 3950 
L 538 3950 
L 538 4863 
z
" transform="scale(0.015625)"/>
     <path id="DejaVuSans-Bold-6c" d="M 538 4863 
L 1656 4863 
L 1656 0 
L 538 0 
L 538 4863 
z
" transform="scale(0.015625)"/>
     <path id="DejaVuSans-Bold-75" d="M 500 1363 
L 500 3500 
L 1625 3500 
L 1625 3150 
Q 1625 2866 1622 2436 
Q 1619 2006 1619 1863 
Q 1619 1441 1641 1255 
Q 1663 1069 1716 984 
Q 1784 875 1895 815 
Q 2006 756 2150 756 
Q 2500 756 2700 1025 
Q 2900 1294 2900 1772 
L 2900 3500 
L 4019 3500 
L 4019 0 
L 2900 0 
L 2900 506 
Q 2647 200 2364 54 
Q 2081 -91 1741 -91 
Q 1134 -91 817 281 
Q 500 653 500 1363 
z
" transform="scale(0.015625)"/>
     <path id="DejaVuSans-Bold-6e" d="M 4056 2131 
L 4056 0 
L 2931 0 
L 2931 347 
L 2931 1631 
Q 2931 2084 2911 2256 
Q 2891 2428 2841 2509 
Q 2775 2619 2662 2680 
Q 2550 2741 2406 2741 
Q 2056 2741 1856 2470 
Q 1656 2200 1656 1722 
L 1656 0 
L 538 0 
L 538 3500 
L 1656 3500 
L 1656 2988 
Q 1909 3294 2193 3439 
Q 2478 3584 2822 3584 
Q 3428 3584 3742 3212 
Q 4056 2841 4056 2131 
z
" transform="scale(0.015625)"/>
     <path id="DejaVuSans-Bold-67" d="M 2919 594 
Q 2688 288 2409 144 
Q 2131 0 1766 0 
Q 1125 0 706 504 
Q 288 1009 288 1791 
Q 288 2575 706 3076 
Q 1125 3578 1766 3578 
Q 2131 3578 2409 3434 
Q 2688 3291 2919 2981 
L 2919 3500 
L 4044 3500 
L 4044 353 
Q 4044 -491 3511 -936 
Q 2978 -1381 1966 -1381 
Q 1638 -1381 1331 -1331 
Q 1025 -1281 716 -1178 
L 716 -306 
Q 1009 -475 1290 -558 
Q 1572 -641 1856 -641 
Q 2406 -641 2662 -400 
Q 2919 -159 2919 353 
L 2919 594 
z
M 2181 2772 
Q 1834 2772 1640 2515 
Q 1447 2259 1447 1791 
Q 1447 1309 1634 1061 
Q 1822 813 2181 813 
Q 2531 813 2725 1069 
Q 2919 1325 2919 1791 
Q 2919 2259 2725 2515 
Q 2531 2772 2181 2772 
z
" transform="scale(0.015625)"/>
     <path id="DejaVuSans-Bold-20" transform="scale(0.015625)"/>
     <path id="DejaVuSans-Bold-64" d="M 2919 2988 
L 2919 4863 
L 4044 4863 
L 4044 0 
L 2919 0 
L 2919 506 
Q 2688 197 2409 53 
Q 2131 -91 1766 -91 
Q 1119 -91 703 423 
Q 288 938 288 1747 
Q 288 2556 703 3070 
Q 1119 3584 1766 3584 
Q 2128 3584 2408 3439 
Q 2688 3294 2919 2988 
z
M 2181 722 
Q 2541 722 2730 984 
Q 2919 1247 2919 1747 
Q 2919 2247 2730 2509 
Q 2541 2772 2181 2772 
Q 1825 2772 1636 2509 
Q 1447 2247 1447 1747 
Q 1447 1247 1636 984 
Q 1825 722 2181 722 
z
" transform="scale(0.015625)"/>
     <path id="DejaVuSans-Bold-73" d="M 3272 3391 
L 3272 2541 
Q 2913 2691 2578 2766 
Q 2244 2841 1947 2841 
Q 1628 2841 1473 2761 
Q 1319 2681 1319 2516 
Q 1319 2381 1436 2309 
Q 1553 2238 1856 2203 
L 2053 2175 
Q 2913 2066 3209 1816 
Q 3506 1566 3506 1031 
Q 3506 472 3093 190 
Q 2681 -91 1863 -91 
Q 1516 -91 1145 -36 
Q 775 19 384 128 
L 384 978 
Q 719 816 1070 734 
Q 1422 653 1784 653 
Q 2113 653 2278 743 
Q 2444 834 2444 1013 
Q 2444 1163 2330 1236 
Q 2216 1309 1875 1350 
L 1678 1375 
Q 931 1469 631 1722 
Q 331 1975 331 2491 
Q 331 3047 712 3315 
Q 1094 3584 1881 3584 
Q 2191 3584 2531 3537 
Q 2872 3491 3272 3391 
z
" transform="scale(0.015625)"/>
     <path id="DejaVuSans-Bold-53" d="M 3834 4519 
L 3834 3531 
Q 3450 3703 3084 3790 
Q 2719 3878 2394 3878 
Q 1963 3878 1756 3759 
Q 1550 3641 1550 3391 
Q 1550 3203 1689 3098 
Q 1828 2994 2194 2919 
L 2706 2816 
Q 3484 2659 3812 2340 
Q 4141 2022 4141 1434 
Q 4141 663 3683 286 
Q 3225 -91 2284 -91 
Q 1841 -91 1394 -6 
Q 947 78 500 244 
L 500 1259 
Q 947 1022 1364 901 
Q 1781 781 2169 781 
Q 2563 781 2772 912 
Q 2981 1044 2981 1288 
Q 2981 1506 2839 1625 
Q 2697 1744 2272 1838 
L 1806 1941 
Q 1106 2091 782 2419 
Q 459 2747 459 3303 
Q 459 4000 909 4375 
Q 1359 4750 2203 4750 
Q 2588 4750 2994 4692 
Q 3400 4634 3834 4519 
z
" transform="scale(0.015625)"/>
     <path id="DejaVuSans-Bold-63" d="M 3366 3391 
L 3366 2478 
Q 3138 2634 2908 2709 
Q 2678 2784 2431 2784 
Q 1963 2784 1702 2511 
Q 1441 2238 1441 1747 
Q 1441 1256 1702 982 
Q 1963 709 2431 709 
Q 2694 709 2930 787 
Q 3166 866 3366 1019 
L 3366 103 
Q 3103 6 2833 -42 
Q 2563 -91 2291 -91 
Q 1344 -91 809 395 
Q 275 881 275 1747 
Q 275 2613 809 3098 
Q 1344 3584 2291 3584 
Q 2566 3584 2833 3536 
Q 3100 3488 3366 3391 
z
" transform="scale(0.015625)"/>
     <path id="DejaVuSans-Bold-68" d="M 4056 2131 
L 4056 0 
L 2931 0 
L 2931 347 
L 2931 1625 
Q 2931 2084 2911 2256 
Q 2891 2428 2841 2509 
Q 2775 2619 2662 2680 
Q 2550 2741 2406 2741 
Q 2056 2741 1856 2470 
Q 1656 2200 1656 1722 
L 1656 0 
L 538 0 
L 538 4863 
L 1656 4863 
L 1656 2988 
Q 1909 3294 2193 3439 
Q 2478 3584 2822 3584 
Q 3428 3584 3742 3212 
Q 4056 2841 4056 2131 
z
" transform="scale(0.015625)"/>
     <path id="DejaVuSans-Bold-61" d="M 2106 1575 
Q 1756 1575 1579 1456 
Q 1403 1338 1403 1106 
Q 1403 894 1545 773 
Q 1688 653 1941 653 
Q 2256 653 2472 879 
Q 2688 1106 2688 1447 
L 2688 1575 
L 2106 1575 
z
M 3816 1997 
L 3816 0 
L 2688 0 
L 2688 519 
Q 2463 200 2181 54 
Q 1900 -91 1497 -91 
Q 953 -91 614 226 
Q 275 544 275 1050 
Q 275 1666 698 1953 
Q 1122 2241 2028 2241 
L 2688 2241 
L 2688 2328 
Q 2688 2594 2478 2717 
Q 2269 2841 1825 2841 
Q 1466 2841 1156 2769 
Q 847 2697 581 2553 
L 581 3406 
Q 941 3494 1303 3539 
Q 1666 3584 2028 3584 
Q 2975 3584 3395 3211 
Q 3816 2838 3816 1997 
z
" transform="scale(0.015625)"/>
     <path id="DejaVuSans-Bold-66" d="M 2841 4863 
L 2841 4128 
L 2222 4128 
Q 1984 4128 1890 4042 
Q 1797 3956 1797 3744 
L 1797 3500 
L 2753 3500 
L 2753 2700 
L 1797 2700 
L 1797 0 
L 678 0 
L 678 2700 
L 122 2700 
L 122 3500 
L 678 3500 
L 678 3744 
Q 678 4316 997 4589 
Q 1316 4863 1984 4863 
L 2841 4863 
z
" transform="scale(0.015625)"/>
     <path id="DejaVuSans-Bold-6d" d="M 3781 2919 
Q 3994 3244 4286 3414 
Q 4578 3584 4928 3584 
Q 5531 3584 5847 3212 
Q 6163 2841 6163 2131 
L 6163 0 
L 5038 0 
L 5038 1825 
Q 5041 1866 5042 1909 
Q 5044 1953 5044 2034 
Q 5044 2406 4934 2573 
Q 4825 2741 4581 2741 
Q 4263 2741 4089 2478 
Q 3916 2216 3909 1719 
L 3909 0 
L 2784 0 
L 2784 1825 
Q 2784 2406 2684 2573 
Q 2584 2741 2328 2741 
Q 2006 2741 1831 2477 
Q 1656 2213 1656 1722 
L 1656 0 
L 531 0 
L 531 3500 
L 1656 3500 
L 1656 2988 
Q 1863 3284 2130 3434 
Q 2397 3584 2719 3584 
Q 3081 3584 3359 3409 
Q 3638 3234 3781 2919 
z
" transform="scale(0.015625)"/>
     <path id="DejaVuSans-Bold-4d" d="M 588 4666 
L 2119 4666 
L 3181 2169 
L 4250 4666 
L 5778 4666 
L 5778 0 
L 4641 0 
L 4641 3413 
L 3566 897 
L 2803 897 
L 1728 3413 
L 1728 0 
L 588 0 
L 588 4666 
z
" transform="scale(0.015625)"/>
     <path id="DejaVuSans-Bold-6b" d="M 538 4863 
L 1656 4863 
L 1656 2216 
L 2944 3500 
L 4244 3500 
L 2534 1894 
L 4378 0 
L 3022 0 
L 1656 1459 
L 1656 0 
L 538 0 
L 538 4863 
z
" transform="scale(0.015625)"/>
     <path id="DejaVuSans-Bold-42" d="M 2456 2859 
Q 2741 2859 2887 2984 
Q 3034 3109 3034 3353 
Q 3034 3594 2887 3720 
Q 2741 3847 2456 3847 
L 1791 3847 
L 1791 2859 
L 2456 2859 
z
M 2497 819 
Q 2859 819 3042 972 
Q 3225 1125 3225 1434 
Q 3225 1738 3044 1889 
Q 2863 2041 2497 2041 
L 1791 2041 
L 1791 819 
L 2497 819 
z
M 3616 2497 
Q 4003 2384 4215 2081 
Q 4428 1778 4428 1338 
Q 4428 663 3972 331 
Q 3516 0 2584 0 
L 588 0 
L 588 4666 
L 2394 4666 
Q 3366 4666 3802 4372 
Q 4238 4078 4238 3431 
Q 4238 3091 4078 2852 
Q 3919 2613 3616 2497 
z
" transform="scale(0.015625)"/>
     <path id="DejaVuSans-Bold-49" d="M 588 4666 
L 1791 4666 
L 1791 0 
L 588 0 
L 588 4666 
z
" transform="scale(0.015625)"/>
    </defs>
    <use xlink:href="#DejaVuSans-Bold-56"/>
    <use xlink:href="#DejaVuSans-Bold-65" x="71.892578"/>
    <use xlink:href="#DejaVuSans-Bold-72" x="139.714844"/>
    <use xlink:href="#DejaVuSans-Bold-74" x="189.03125"/>
    <use xlink:href="#DejaVuSans-Bold-65" x="236.833984"/>
    <use xlink:href="#DejaVuSans-Bold-69" x="304.65625"/>
    <use xlink:href="#DejaVuSans-Bold-6c" x="338.933594"/>
    <use xlink:href="#DejaVuSans-Bold-75" x="373.210938"/>
    <use xlink:href="#DejaVuSans-Bold-6e" x="444.402344"/>
    <use xlink:href="#DejaVuSans-Bold-67" x="515.59375"/>
    <use xlink:href="#DejaVuSans-Bold-20" x="587.175781"/>
    <use xlink:href="#DejaVuSans-Bold-64" x="621.990234"/>
    <use xlink:href="#DejaVuSans-Bold-65" x="693.572266"/>
    <use xlink:href="#DejaVuSans-Bold-73" x="761.394531"/>
    <use xlink:href="#DejaVuSans-Bold-20" x="820.916016"/>
    <use xlink:href="#DejaVuSans-Bold-53" x="855.730469"/>
    <use xlink:href="#DejaVuSans-Bold-63" x="927.751953"/>
    <use xlink:href="#DejaVuSans-Bold-68" x="987.029297"/>
    <use xlink:href="#DejaVuSans-Bold-6c" x="1058.220703"/>
    <use xlink:href="#DejaVuSans-Bold-61" x="1092.498047"/>
    <use xlink:href="#DejaVuSans-Bold-67" x="1159.978516"/>
    <use xlink:href="#DejaVuSans-Bold-61" x="1231.560547"/>
    <use xlink:href="#DejaVuSans-Bold-6e" x="1299.041016"/>
    <use xlink:href="#DejaVuSans-Bold-66" x="1370.232422"/>
    <use xlink:href="#DejaVuSans-Bold-61" x="1413.738281"/>
    <use xlink:href="#DejaVuSans-Bold-6c" x="1481.21875"/>
    <use xlink:href="#DejaVuSans-Bold-6c" x="1515.496094"/>
    <use xlink:href="#DejaVuSans-Bold-73" x="1549.773438"/>
    <use xlink:href="#DejaVuSans-Bold-20" x="1609.294922"/>
    <use xlink:href="#DejaVuSans-Bold-6d" x="1644.109375"/>
    <use xlink:href="#DejaVuSans-Bold-69" x="1748.308594"/>
    <use xlink:href="#DejaVuSans-Bold-74" x="1782.585938"/>
    <use xlink:href="#DejaVuSans-Bold-20" x="1830.388672"/>
    <use xlink:href="#DejaVuSans-Bold-64" x="1865.203125"/>
    <use xlink:href="#DejaVuSans-Bold-65" x="1936.785156"/>
    <use xlink:href="#DejaVuSans-Bold-6d" x="2004.607422"/>
    <use xlink:href="#DejaVuSans-Bold-20" x="2108.806641"/>
    <use xlink:href="#DejaVuSans-Bold-4d" x="2143.621094"/>
    <use xlink:href="#DejaVuSans-Bold-65" x="2243.132812"/>
    <use xlink:href="#DejaVuSans-Bold-72" x="2310.955078"/>
    <use xlink:href="#DejaVuSans-Bold-6b" x="2360.271484"/>
    <use xlink:href="#DejaVuSans-Bold-6d" x="2426.775391"/>
    <use xlink:href="#DejaVuSans-Bold-61" x="2530.974609"/>
    <use xlink:href="#DejaVuSans-Bold-6c" x="2598.455078"/>
    <use xlink:href="#DejaVuSans-Bold-20" x="2632.732422"/>
    <use xlink:href="#DejaVuSans-Bold-42" x="2667.546875"/>
    <use xlink:href="#DejaVuSans-Bold-4d" x="2743.767578"/>
    <use xlink:href="#DejaVuSans-Bold-49" x="2843.279297"/>
   </g>
  </g>
 </g>
 <defs>
  <clipPath id="p2557aeccd7">
   <rect x="56.9" y="77.76" width="479.275" height="294.344621"/>
  </clipPath>
  <clipPath id="p619b4a2584">
   <rect x="589.925" y="77.76" width="479.275" height="294.344621"/>
  </clipPath>
  <clipPath id="pe079318cb0">
   <rect x="56.9" y="383.695379" width="479.275" height="294.344621"/>
  </clipPath>
  <clipPath id="pf400f7af1f">
   <rect x="589.925" y="383.695379" width="479.275" height="294.344621"/>
  </clipPath>
 </defs>
</svg>
