<?xml version="1.0" encoding="utf-8" standalone="no"?>
<!DOCTYPE svg PUBLIC "-//W3C//DTD SVG 1.1//EN"
  "http://www.w3.org/Graphics/SVG/1.1/DTD/svg11.dtd">
<svg xmlns:xlink="http://www.w3.org/1999/xlink" width="1440pt" height="432pt" viewBox="0 0 1440 432" xmlns="http://www.w3.org/2000/svg" version="1.1">
 <metadata>
  <rdf:RDF xmlns:dc="http://purl.org/dc/elements/1.1/" xmlns:cc="http://creativecommons.org/ns#" xmlns:rdf="http://www.w3.org/1999/02/22-rdf-syntax-ns#">
   <cc:Work>
    <dc:type rdf:resource="http://purl.org/dc/dcmitype/StillImage"/>
    <dc:date>2023-07-26T18:08:09.172769</dc:date>
    <dc:format>image/svg+xml</dc:format>
    <dc:creator>
     <cc:Agent>
      <dc:title>Matplotlib v3.6.0, https://matplotlib.org/</dc:title>
     </cc:Agent>
    </dc:creator>
   </cc:Work>
  </rdf:RDF>
 </metadata>
 <defs>
  <style type="text/css">*{stroke-linejoin: round; stroke-linecap: butt}</style>
 </defs>
 <g id="figure_1">
  <g id="patch_1">
   <path d="M 0 432 
L 1440 432 
L 1440 0 
L 0 0 
z
" style="fill: #ffffff"/>
  </g>
  <g id="axes_1">
   <g id="patch_2">
    <path d="M 53.75 395.8 
L 492.766667 395.8 
L 492.766667 59.28 
L 53.75 59.28 
z
" style="fill: #ffffff"/>
   </g>
   <g id="matplotlib.axis_1">
    <g id="xtick_1"/>
    <g id="text_1">
     <!-- Alle Geschlechter -->
     <g style="fill: #262626" transform="translate(203.157083 418.9575) scale(0.16 -0.16)">
      <defs>
       <path id="DejaVuSans-41" d="M 2188 4044 
L 1331 1722 
L 3047 1722 
L 2188 4044 
z
M 1831 4666 
L 2547 4666 
L 4325 0 
L 3669 0 
L 3244 1197 
L 1141 1197 
L 716 0 
L 50 0 
L 1831 4666 
z
" transform="scale(0.015625)"/>
       <path id="DejaVuSans-6c" d="M 603 4863 
L 1178 4863 
L 1178 0 
L 603 0 
L 603 4863 
z
" transform="scale(0.015625)"/>
       <path id="DejaVuSans-65" d="M 3597 1894 
L 3597 1613 
L 953 1613 
Q 991 1019 1311 708 
Q 1631 397 2203 397 
Q 2534 397 2845 478 
Q 3156 559 3463 722 
L 3463 178 
Q 3153 47 2828 -22 
Q 2503 -91 2169 -91 
Q 1331 -91 842 396 
Q 353 884 353 1716 
Q 353 2575 817 3079 
Q 1281 3584 2069 3584 
Q 2775 3584 3186 3129 
Q 3597 2675 3597 1894 
z
M 3022 2063 
Q 3016 2534 2758 2815 
Q 2500 3097 2075 3097 
Q 1594 3097 1305 2825 
Q 1016 2553 972 2059 
L 3022 2063 
z
" transform="scale(0.015625)"/>
       <path id="DejaVuSans-20" transform="scale(0.015625)"/>
       <path id="DejaVuSans-47" d="M 3809 666 
L 3809 1919 
L 2778 1919 
L 2778 2438 
L 4434 2438 
L 4434 434 
Q 4069 175 3628 42 
Q 3188 -91 2688 -91 
Q 1594 -91 976 548 
Q 359 1188 359 2328 
Q 359 3472 976 4111 
Q 1594 4750 2688 4750 
Q 3144 4750 3555 4637 
Q 3966 4525 4313 4306 
L 4313 3634 
Q 3963 3931 3569 4081 
Q 3175 4231 2741 4231 
Q 1884 4231 1454 3753 
Q 1025 3275 1025 2328 
Q 1025 1384 1454 906 
Q 1884 428 2741 428 
Q 3075 428 3337 486 
Q 3600 544 3809 666 
z
" transform="scale(0.015625)"/>
       <path id="DejaVuSans-73" d="M 2834 3397 
L 2834 2853 
Q 2591 2978 2328 3040 
Q 2066 3103 1784 3103 
Q 1356 3103 1142 2972 
Q 928 2841 928 2578 
Q 928 2378 1081 2264 
Q 1234 2150 1697 2047 
L 1894 2003 
Q 2506 1872 2764 1633 
Q 3022 1394 3022 966 
Q 3022 478 2636 193 
Q 2250 -91 1575 -91 
Q 1294 -91 989 -36 
Q 684 19 347 128 
L 347 722 
Q 666 556 975 473 
Q 1284 391 1588 391 
Q 1994 391 2212 530 
Q 2431 669 2431 922 
Q 2431 1156 2273 1281 
Q 2116 1406 1581 1522 
L 1381 1569 
Q 847 1681 609 1914 
Q 372 2147 372 2553 
Q 372 3047 722 3315 
Q 1072 3584 1716 3584 
Q 2034 3584 2315 3537 
Q 2597 3491 2834 3397 
z
" transform="scale(0.015625)"/>
       <path id="DejaVuSans-63" d="M 3122 3366 
L 3122 2828 
Q 2878 2963 2633 3030 
Q 2388 3097 2138 3097 
Q 1578 3097 1268 2742 
Q 959 2388 959 1747 
Q 959 1106 1268 751 
Q 1578 397 2138 397 
Q 2388 397 2633 464 
Q 2878 531 3122 666 
L 3122 134 
Q 2881 22 2623 -34 
Q 2366 -91 2075 -91 
Q 1284 -91 818 406 
Q 353 903 353 1747 
Q 353 2603 823 3093 
Q 1294 3584 2113 3584 
Q 2378 3584 2631 3529 
Q 2884 3475 3122 3366 
z
" transform="scale(0.015625)"/>
       <path id="DejaVuSans-68" d="M 3513 2113 
L 3513 0 
L 2938 0 
L 2938 2094 
Q 2938 2591 2744 2837 
Q 2550 3084 2163 3084 
Q 1697 3084 1428 2787 
Q 1159 2491 1159 1978 
L 1159 0 
L 581 0 
L 581 4863 
L 1159 4863 
L 1159 2956 
Q 1366 3272 1645 3428 
Q 1925 3584 2291 3584 
Q 2894 3584 3203 3211 
Q 3513 2838 3513 2113 
z
" transform="scale(0.015625)"/>
       <path id="DejaVuSans-74" d="M 1172 4494 
L 1172 3500 
L 2356 3500 
L 2356 3053 
L 1172 3053 
L 1172 1153 
Q 1172 725 1289 603 
Q 1406 481 1766 481 
L 2356 481 
L 2356 0 
L 1766 0 
Q 1100 0 847 248 
Q 594 497 594 1153 
L 594 3053 
L 172 3053 
L 172 3500 
L 594 3500 
L 594 4494 
L 1172 4494 
z
" transform="scale(0.015625)"/>
       <path id="DejaVuSans-72" d="M 2631 2963 
Q 2534 3019 2420 3045 
Q 2306 3072 2169 3072 
Q 1681 3072 1420 2755 
Q 1159 2438 1159 1844 
L 1159 0 
L 581 0 
L 581 3500 
L 1159 3500 
L 1159 2956 
Q 1341 3275 1631 3429 
Q 1922 3584 2338 3584 
Q 2397 3584 2469 3576 
Q 2541 3569 2628 3553 
L 2631 2963 
z
" transform="scale(0.015625)"/>
      </defs>
      <use xlink:href="#DejaVuSans-41"/>
      <use xlink:href="#DejaVuSans-6c" x="68.408203"/>
      <use xlink:href="#DejaVuSans-6c" x="96.191406"/>
      <use xlink:href="#DejaVuSans-65" x="123.974609"/>
      <use xlink:href="#DejaVuSans-20" x="185.498047"/>
      <use xlink:href="#DejaVuSans-47" x="217.285156"/>
      <use xlink:href="#DejaVuSans-65" x="294.775391"/>
      <use xlink:href="#DejaVuSans-73" x="356.298828"/>
      <use xlink:href="#DejaVuSans-63" x="408.398438"/>
      <use xlink:href="#DejaVuSans-68" x="463.378906"/>
      <use xlink:href="#DejaVuSans-6c" x="526.757812"/>
      <use xlink:href="#DejaVuSans-65" x="554.541016"/>
      <use xlink:href="#DejaVuSans-63" x="616.064453"/>
      <use xlink:href="#DejaVuSans-68" x="671.044922"/>
      <use xlink:href="#DejaVuSans-74" x="734.423828"/>
      <use xlink:href="#DejaVuSans-65" x="773.632812"/>
      <use xlink:href="#DejaVuSans-72" x="835.15625"/>
     </g>
    </g>
   </g>
   <g id="matplotlib.axis_2">
    <g id="ytick_1">
     <g id="line2d_1">
      <path d="M 53.75 395.8 
L 492.766667 395.8 
" clip-path="url(#pd185f9fc8c)" style="fill: none; stroke-dasharray: 1.85,0.8; stroke-dashoffset: 0; stroke: #cccccc; stroke-width: 0.5"/>
     </g>
     <g id="text_2">
      <!-- 0 -->
      <g style="fill: #262626" transform="translate(40.3875 399.599219) scale(0.1 -0.1)">
       <defs>
        <path id="DejaVuSans-30" d="M 2034 4250 
Q 1547 4250 1301 3770 
Q 1056 3291 1056 2328 
Q 1056 1369 1301 889 
Q 1547 409 2034 409 
Q 2525 409 2770 889 
Q 3016 1369 3016 2328 
Q 3016 3291 2770 3770 
Q 2525 4250 2034 4250 
z
M 2034 4750 
Q 2819 4750 3233 4129 
Q 3647 3509 3647 2328 
Q 3647 1150 3233 529 
Q 2819 -91 2034 -91 
Q 1250 -91 836 529 
Q 422 1150 422 2328 
Q 422 3509 836 4129 
Q 1250 4750 2034 4750 
z
" transform="scale(0.015625)"/>
       </defs>
       <use xlink:href="#DejaVuSans-30"/>
      </g>
     </g>
    </g>
    <g id="ytick_2">
     <g id="line2d_2">
      <path d="M 53.75 334.614545 
L 492.766667 334.614545 
" clip-path="url(#pd185f9fc8c)" style="fill: none; stroke-dasharray: 1.85,0.8; stroke-dashoffset: 0; stroke: #cccccc; stroke-width: 0.5"/>
     </g>
     <g id="text_3">
      <!-- 20 -->
      <g style="fill: #262626" transform="translate(34.025 338.413764) scale(0.1 -0.1)">
       <defs>
        <path id="DejaVuSans-32" d="M 1228 531 
L 3431 531 
L 3431 0 
L 469 0 
L 469 531 
Q 828 903 1448 1529 
Q 2069 2156 2228 2338 
Q 2531 2678 2651 2914 
Q 2772 3150 2772 3378 
Q 2772 3750 2511 3984 
Q 2250 4219 1831 4219 
Q 1534 4219 1204 4116 
Q 875 4013 500 3803 
L 500 4441 
Q 881 4594 1212 4672 
Q 1544 4750 1819 4750 
Q 2544 4750 2975 4387 
Q 3406 4025 3406 3419 
Q 3406 3131 3298 2873 
Q 3191 2616 2906 2266 
Q 2828 2175 2409 1742 
Q 1991 1309 1228 531 
z
" transform="scale(0.015625)"/>
       </defs>
       <use xlink:href="#DejaVuSans-32"/>
       <use xlink:href="#DejaVuSans-30" x="63.623047"/>
      </g>
     </g>
    </g>
    <g id="ytick_3">
     <g id="line2d_3">
      <path d="M 53.75 273.429091 
L 492.766667 273.429091 
" clip-path="url(#pd185f9fc8c)" style="fill: none; stroke-dasharray: 1.85,0.8; stroke-dashoffset: 0; stroke: #cccccc; stroke-width: 0.5"/>
     </g>
     <g id="text_4">
      <!-- 40 -->
      <g style="fill: #262626" transform="translate(34.025 277.22831) scale(0.1 -0.1)">
       <defs>
        <path id="DejaVuSans-34" d="M 2419 4116 
L 825 1625 
L 2419 1625 
L 2419 4116 
z
M 2253 4666 
L 3047 4666 
L 3047 1625 
L 3713 1625 
L 3713 1100 
L 3047 1100 
L 3047 0 
L 2419 0 
L 2419 1100 
L 313 1100 
L 313 1709 
L 2253 4666 
z
" transform="scale(0.015625)"/>
       </defs>
       <use xlink:href="#DejaVuSans-34"/>
       <use xlink:href="#DejaVuSans-30" x="63.623047"/>
      </g>
     </g>
    </g>
    <g id="ytick_4">
     <g id="line2d_4">
      <path d="M 53.75 212.243636 
L 492.766667 212.243636 
" clip-path="url(#pd185f9fc8c)" style="fill: none; stroke-dasharray: 1.85,0.8; stroke-dashoffset: 0; stroke: #cccccc; stroke-width: 0.5"/>
     </g>
     <g id="text_5">
      <!-- 60 -->
      <g style="fill: #262626" transform="translate(34.025 216.042855) scale(0.1 -0.1)">
       <defs>
        <path id="DejaVuSans-36" d="M 2113 2584 
Q 1688 2584 1439 2293 
Q 1191 2003 1191 1497 
Q 1191 994 1439 701 
Q 1688 409 2113 409 
Q 2538 409 2786 701 
Q 3034 994 3034 1497 
Q 3034 2003 2786 2293 
Q 2538 2584 2113 2584 
z
M 3366 4563 
L 3366 3988 
Q 3128 4100 2886 4159 
Q 2644 4219 2406 4219 
Q 1781 4219 1451 3797 
Q 1122 3375 1075 2522 
Q 1259 2794 1537 2939 
Q 1816 3084 2150 3084 
Q 2853 3084 3261 2657 
Q 3669 2231 3669 1497 
Q 3669 778 3244 343 
Q 2819 -91 2113 -91 
Q 1303 -91 875 529 
Q 447 1150 447 2328 
Q 447 3434 972 4092 
Q 1497 4750 2381 4750 
Q 2619 4750 2861 4703 
Q 3103 4656 3366 4563 
z
" transform="scale(0.015625)"/>
       </defs>
       <use xlink:href="#DejaVuSans-36"/>
       <use xlink:href="#DejaVuSans-30" x="63.623047"/>
      </g>
     </g>
    </g>
    <g id="ytick_5">
     <g id="line2d_5">
      <path d="M 53.75 151.058182 
L 492.766667 151.058182 
" clip-path="url(#pd185f9fc8c)" style="fill: none; stroke-dasharray: 1.85,0.8; stroke-dashoffset: 0; stroke: #cccccc; stroke-width: 0.5"/>
     </g>
     <g id="text_6">
      <!-- 80 -->
      <g style="fill: #262626" transform="translate(34.025 154.857401) scale(0.1 -0.1)">
       <defs>
        <path id="DejaVuSans-38" d="M 2034 2216 
Q 1584 2216 1326 1975 
Q 1069 1734 1069 1313 
Q 1069 891 1326 650 
Q 1584 409 2034 409 
Q 2484 409 2743 651 
Q 3003 894 3003 1313 
Q 3003 1734 2745 1975 
Q 2488 2216 2034 2216 
z
M 1403 2484 
Q 997 2584 770 2862 
Q 544 3141 544 3541 
Q 544 4100 942 4425 
Q 1341 4750 2034 4750 
Q 2731 4750 3128 4425 
Q 3525 4100 3525 3541 
Q 3525 3141 3298 2862 
Q 3072 2584 2669 2484 
Q 3125 2378 3379 2068 
Q 3634 1759 3634 1313 
Q 3634 634 3220 271 
Q 2806 -91 2034 -91 
Q 1263 -91 848 271 
Q 434 634 434 1313 
Q 434 1759 690 2068 
Q 947 2378 1403 2484 
z
M 1172 3481 
Q 1172 3119 1398 2916 
Q 1625 2713 2034 2713 
Q 2441 2713 2670 2916 
Q 2900 3119 2900 3481 
Q 2900 3844 2670 4047 
Q 2441 4250 2034 4250 
Q 1625 4250 1398 4047 
Q 1172 3844 1172 3481 
z
" transform="scale(0.015625)"/>
       </defs>
       <use xlink:href="#DejaVuSans-38"/>
       <use xlink:href="#DejaVuSans-30" x="63.623047"/>
      </g>
     </g>
    </g>
    <g id="ytick_6">
     <g id="line2d_6">
      <path d="M 53.75 89.872727 
L 492.766667 89.872727 
" clip-path="url(#pd185f9fc8c)" style="fill: none; stroke-dasharray: 1.85,0.8; stroke-dashoffset: 0; stroke: #cccccc; stroke-width: 0.5"/>
     </g>
     <g id="text_7">
      <!-- 100 -->
      <g style="fill: #262626" transform="translate(27.6625 93.671946) scale(0.1 -0.1)">
       <defs>
        <path id="DejaVuSans-31" d="M 794 531 
L 1825 531 
L 1825 4091 
L 703 3866 
L 703 4441 
L 1819 4666 
L 2450 4666 
L 2450 531 
L 3481 531 
L 3481 0 
L 794 0 
L 794 531 
z
" transform="scale(0.015625)"/>
       </defs>
       <use xlink:href="#DejaVuSans-31"/>
       <use xlink:href="#DejaVuSans-30" x="63.623047"/>
       <use xlink:href="#DejaVuSans-30" x="127.246094"/>
      </g>
     </g>
    </g>
    <g id="text_8">
     <!-- Alter -->
     <g style="fill: #262626" transform="translate(21.166875 241.821875) rotate(-90) scale(0.12 -0.12)">
      <use xlink:href="#DejaVuSans-41"/>
      <use xlink:href="#DejaVuSans-6c" x="68.408203"/>
      <use xlink:href="#DejaVuSans-74" x="96.191406"/>
      <use xlink:href="#DejaVuSans-65" x="135.400391"/>
      <use xlink:href="#DejaVuSans-72" x="196.923828"/>
     </g>
    </g>
   </g>
   <g id="patch_3">
    <path d="M 207.405833 216.832545 
L 339.110833 216.832545 
L 339.110833 157.176727 
L 207.405833 157.176727 
L 207.405833 216.832545 
z
" clip-path="url(#pd185f9fc8c)" style="fill: #3b6258; stroke: #2f2f2f; stroke-width: 1.5; stroke-linejoin: miter"/>
   </g>
   <g id="line2d_7">
    <path d="M 273.258333 216.832545 
L 273.258333 297.903273 
" clip-path="url(#pd185f9fc8c)" style="fill: none; stroke: #2f2f2f; stroke-width: 1.5; stroke-linecap: round"/>
   </g>
   <g id="line2d_8">
    <path d="M 273.258333 157.176727 
L 273.258333 144.939636 
" clip-path="url(#pd185f9fc8c)" style="fill: none; stroke: #2f2f2f; stroke-width: 1.5; stroke-linecap: round"/>
   </g>
   <g id="line2d_9">
    <path d="M 240.332083 297.903273 
L 306.184583 297.903273 
" clip-path="url(#pd185f9fc8c)" style="fill: none; stroke: #2f2f2f; stroke-width: 1.5; stroke-linecap: round"/>
   </g>
   <g id="line2d_10">
    <path d="M 240.332083 144.939636 
L 306.184583 144.939636 
" clip-path="url(#pd185f9fc8c)" style="fill: none; stroke: #2f2f2f; stroke-width: 1.5; stroke-linecap: round"/>
   </g>
   <g id="line2d_11">
    <defs>
     <path id="md23d356986" d="M -2.5 2.5 
L 2.5 -2.5 
M -2.5 -2.5 
L 2.5 2.5 
" style="stroke: #2f2f2f"/>
    </defs>
    <g clip-path="url(#pd185f9fc8c)">
     <use xlink:href="#md23d356986" x="273.258333" y="352.970182" style="fill: #2f2f2f; stroke: #2f2f2f"/>
     <use xlink:href="#md23d356986" x="273.258333" y="391.76176" style="fill: #2f2f2f; stroke: #2f2f2f"/>
    </g>
   </g>
   <g id="line2d_12">
    <path d="M 207.405833 178.591636 
L 339.110833 178.591636 
" clip-path="url(#pd185f9fc8c)" style="fill: none; stroke: #2f2f2f; stroke-width: 1.5; stroke-linecap: round"/>
   </g>
  </g>
  <g id="axes_2">
   <g id="patch_4">
    <path d="M 521.966667 395.8 
L 960.983333 395.8 
L 960.983333 59.28 
L 521.966667 59.28 
z
" style="fill: #ffffff"/>
   </g>
   <g id="matplotlib.axis_3">
    <g id="xtick_2"/>
    <g id="text_9">
     <!-- Männlich -->
     <g style="fill: #262626" transform="translate(705.61625 418.9575) scale(0.16 -0.16)">
      <defs>
       <path id="DejaVuSans-4d" d="M 628 4666 
L 1569 4666 
L 2759 1491 
L 3956 4666 
L 4897 4666 
L 4897 0 
L 4281 0 
L 4281 4097 
L 3078 897 
L 2444 897 
L 1241 4097 
L 1241 0 
L 628 0 
L 628 4666 
z
" transform="scale(0.015625)"/>
       <path id="DejaVuSans-e4" d="M 2194 1759 
Q 1497 1759 1228 1600 
Q 959 1441 959 1056 
Q 959 750 1161 570 
Q 1363 391 1709 391 
Q 2188 391 2477 730 
Q 2766 1069 2766 1631 
L 2766 1759 
L 2194 1759 
z
M 3341 1997 
L 3341 0 
L 2766 0 
L 2766 531 
Q 2569 213 2275 61 
Q 1981 -91 1556 -91 
Q 1019 -91 701 211 
Q 384 513 384 1019 
Q 384 1609 779 1909 
Q 1175 2209 1959 2209 
L 2766 2209 
L 2766 2266 
Q 2766 2663 2505 2880 
Q 2244 3097 1772 3097 
Q 1472 3097 1187 3025 
Q 903 2953 641 2809 
L 641 3341 
Q 956 3463 1253 3523 
Q 1550 3584 1831 3584 
Q 2591 3584 2966 3190 
Q 3341 2797 3341 1997 
z
M 2150 4850 
L 2784 4850 
L 2784 4219 
L 2150 4219 
L 2150 4850 
z
M 928 4850 
L 1562 4850 
L 1562 4219 
L 928 4219 
L 928 4850 
z
" transform="scale(0.015625)"/>
       <path id="DejaVuSans-6e" d="M 3513 2113 
L 3513 0 
L 2938 0 
L 2938 2094 
Q 2938 2591 2744 2837 
Q 2550 3084 2163 3084 
Q 1697 3084 1428 2787 
Q 1159 2491 1159 1978 
L 1159 0 
L 581 0 
L 581 3500 
L 1159 3500 
L 1159 2956 
Q 1366 3272 1645 3428 
Q 1925 3584 2291 3584 
Q 2894 3584 3203 3211 
Q 3513 2838 3513 2113 
z
" transform="scale(0.015625)"/>
       <path id="DejaVuSans-69" d="M 603 3500 
L 1178 3500 
L 1178 0 
L 603 0 
L 603 3500 
z
M 603 4863 
L 1178 4863 
L 1178 4134 
L 603 4134 
L 603 4863 
z
" transform="scale(0.015625)"/>
      </defs>
      <use xlink:href="#DejaVuSans-4d"/>
      <use xlink:href="#DejaVuSans-e4" x="86.279297"/>
      <use xlink:href="#DejaVuSans-6e" x="147.558594"/>
      <use xlink:href="#DejaVuSans-6e" x="210.9375"/>
      <use xlink:href="#DejaVuSans-6c" x="274.316406"/>
      <use xlink:href="#DejaVuSans-69" x="302.099609"/>
      <use xlink:href="#DejaVuSans-63" x="329.882812"/>
      <use xlink:href="#DejaVuSans-68" x="384.863281"/>
     </g>
    </g>
   </g>
   <g id="matplotlib.axis_4">
    <g id="ytick_7">
     <g id="line2d_13">
      <path d="M 521.966667 395.8 
L 960.983333 395.8 
" clip-path="url(#p61b24ee81c)" style="fill: none; stroke-dasharray: 1.85,0.8; stroke-dashoffset: 0; stroke: #cccccc; stroke-width: 0.5"/>
     </g>
    </g>
    <g id="ytick_8">
     <g id="line2d_14">
      <path d="M 521.966667 334.614545 
L 960.983333 334.614545 
" clip-path="url(#p61b24ee81c)" style="fill: none; stroke-dasharray: 1.85,0.8; stroke-dashoffset: 0; stroke: #cccccc; stroke-width: 0.5"/>
     </g>
    </g>
    <g id="ytick_9">
     <g id="line2d_15">
      <path d="M 521.966667 273.429091 
L 960.983333 273.429091 
" clip-path="url(#p61b24ee81c)" style="fill: none; stroke-dasharray: 1.85,0.8; stroke-dashoffset: 0; stroke: #cccccc; stroke-width: 0.5"/>
     </g>
    </g>
    <g id="ytick_10">
     <g id="line2d_16">
      <path d="M 521.966667 212.243636 
L 960.983333 212.243636 
" clip-path="url(#p61b24ee81c)" style="fill: none; stroke-dasharray: 1.85,0.8; stroke-dashoffset: 0; stroke: #cccccc; stroke-width: 0.5"/>
     </g>
    </g>
    <g id="ytick_11">
     <g id="line2d_17">
      <path d="M 521.966667 151.058182 
L 960.983333 151.058182 
" clip-path="url(#p61b24ee81c)" style="fill: none; stroke-dasharray: 1.85,0.8; stroke-dashoffset: 0; stroke: #cccccc; stroke-width: 0.5"/>
     </g>
    </g>
    <g id="ytick_12">
     <g id="line2d_18">
      <path d="M 521.966667 89.872727 
L 960.983333 89.872727 
" clip-path="url(#p61b24ee81c)" style="fill: none; stroke-dasharray: 1.85,0.8; stroke-dashoffset: 0; stroke: #cccccc; stroke-width: 0.5"/>
     </g>
    </g>
    <g id="text_10">
     <!--   -->
     <g style="fill: #262626" transform="translate(514.639167 230.0825) rotate(-90) scale(0.16 -0.16)">
      <use xlink:href="#DejaVuSans-20"/>
     </g>
    </g>
   </g>
   <g id="patch_5">
    <path d="M 675.6225 209.949182 
L 807.3275 209.949182 
L 807.3275 157.176727 
L 675.6225 157.176727 
L 675.6225 209.949182 
z
" clip-path="url(#p61b24ee81c)" style="fill: #3b6258; stroke: #2f2f2f; stroke-width: 1.5; stroke-linejoin: miter"/>
   </g>
   <g id="line2d_19">
    <path d="M 741.475 209.949182 
L 741.475 267.310545 
" clip-path="url(#p61b24ee81c)" style="fill: none; stroke: #2f2f2f; stroke-width: 1.5; stroke-linecap: round"/>
   </g>
   <g id="line2d_20">
    <path d="M 741.475 157.176727 
L 741.475 144.939636 
" clip-path="url(#p61b24ee81c)" style="fill: none; stroke: #2f2f2f; stroke-width: 1.5; stroke-linecap: round"/>
   </g>
   <g id="line2d_21">
    <path d="M 708.54875 267.310545 
L 774.40125 267.310545 
" clip-path="url(#p61b24ee81c)" style="fill: none; stroke: #2f2f2f; stroke-width: 1.5; stroke-linecap: round"/>
   </g>
   <g id="line2d_22">
    <path d="M 708.54875 144.939636 
L 774.40125 144.939636 
" clip-path="url(#p61b24ee81c)" style="fill: none; stroke: #2f2f2f; stroke-width: 1.5; stroke-linecap: round"/>
   </g>
   <g id="line2d_23"/>
   <g id="line2d_24">
    <path d="M 675.6225 178.591636 
L 807.3275 178.591636 
" clip-path="url(#p61b24ee81c)" style="fill: none; stroke: #2f2f2f; stroke-width: 1.5; stroke-linecap: round"/>
   </g>
   <g id="text_11">
    <!--   -->
    <g style="fill: #262626" transform="translate(738.9325 53.28) scale(0.16 -0.16)">
     <use xlink:href="#DejaVuSans-20"/>
    </g>
   </g>
  </g>
  <g id="axes_3">
   <g id="patch_6">
    <path d="M 990.183333 395.8 
L 1429.2 395.8 
L 1429.2 59.28 
L 990.183333 59.28 
z
" style="fill: #ffffff"/>
   </g>
   <g id="matplotlib.axis_5">
    <g id="xtick_3"/>
    <g id="text_12">
     <!-- Weiblich -->
     <g style="fill: #262626" transform="translate(1176.114167 418.9575) scale(0.16 -0.16)">
      <defs>
       <path id="DejaVuSans-57" d="M 213 4666 
L 850 4666 
L 1831 722 
L 2809 4666 
L 3519 4666 
L 4500 722 
L 5478 4666 
L 6119 4666 
L 4947 0 
L 4153 0 
L 3169 4050 
L 2175 0 
L 1381 0 
L 213 4666 
z
" transform="scale(0.015625)"/>
       <path id="DejaVuSans-62" d="M 3116 1747 
Q 3116 2381 2855 2742 
Q 2594 3103 2138 3103 
Q 1681 3103 1420 2742 
Q 1159 2381 1159 1747 
Q 1159 1113 1420 752 
Q 1681 391 2138 391 
Q 2594 391 2855 752 
Q 3116 1113 3116 1747 
z
M 1159 2969 
Q 1341 3281 1617 3432 
Q 1894 3584 2278 3584 
Q 2916 3584 3314 3078 
Q 3713 2572 3713 1747 
Q 3713 922 3314 415 
Q 2916 -91 2278 -91 
Q 1894 -91 1617 61 
Q 1341 213 1159 525 
L 1159 0 
L 581 0 
L 581 4863 
L 1159 4863 
L 1159 2969 
z
" transform="scale(0.015625)"/>
      </defs>
      <use xlink:href="#DejaVuSans-57"/>
      <use xlink:href="#DejaVuSans-65" x="93.001953"/>
      <use xlink:href="#DejaVuSans-69" x="154.525391"/>
      <use xlink:href="#DejaVuSans-62" x="182.308594"/>
      <use xlink:href="#DejaVuSans-6c" x="245.785156"/>
      <use xlink:href="#DejaVuSans-69" x="273.568359"/>
      <use xlink:href="#DejaVuSans-63" x="301.351562"/>
      <use xlink:href="#DejaVuSans-68" x="356.332031"/>
     </g>
    </g>
   </g>
   <g id="matplotlib.axis_6">
    <g id="ytick_13">
     <g id="line2d_25">
      <path d="M 990.183333 395.8 
L 1429.2 395.8 
" clip-path="url(#pbc6abbdb0b)" style="fill: none; stroke-dasharray: 1.85,0.8; stroke-dashoffset: 0; stroke: #cccccc; stroke-width: 0.5"/>
     </g>
    </g>
    <g id="ytick_14">
     <g id="line2d_26">
      <path d="M 990.183333 334.614545 
L 1429.2 334.614545 
" clip-path="url(#pbc6abbdb0b)" style="fill: none; stroke-dasharray: 1.85,0.8; stroke-dashoffset: 0; stroke: #cccccc; stroke-width: 0.5"/>
     </g>
    </g>
    <g id="ytick_15">
     <g id="line2d_27">
      <path d="M 990.183333 273.429091 
L 1429.2 273.429091 
" clip-path="url(#pbc6abbdb0b)" style="fill: none; stroke-dasharray: 1.85,0.8; stroke-dashoffset: 0; stroke: #cccccc; stroke-width: 0.5"/>
     </g>
    </g>
    <g id="ytick_16">
     <g id="line2d_28">
      <path d="M 990.183333 212.243636 
L 1429.2 212.243636 
" clip-path="url(#pbc6abbdb0b)" style="fill: none; stroke-dasharray: 1.85,0.8; stroke-dashoffset: 0; stroke: #cccccc; stroke-width: 0.5"/>
     </g>
    </g>
    <g id="ytick_17">
     <g id="line2d_29">
      <path d="M 990.183333 151.058182 
L 1429.2 151.058182 
" clip-path="url(#pbc6abbdb0b)" style="fill: none; stroke-dasharray: 1.85,0.8; stroke-dashoffset: 0; stroke: #cccccc; stroke-width: 0.5"/>
     </g>
    </g>
    <g id="ytick_18">
     <g id="line2d_30">
      <path d="M 990.183333 89.872727 
L 1429.2 89.872727 
" clip-path="url(#pbc6abbdb0b)" style="fill: none; stroke-dasharray: 1.85,0.8; stroke-dashoffset: 0; stroke: #cccccc; stroke-width: 0.5"/>
     </g>
    </g>
    <g id="text_13">
     <!--   -->
     <g style="fill: #262626" transform="translate(982.855833 230.0825) rotate(-90) scale(0.16 -0.16)">
      <use xlink:href="#DejaVuSans-20"/>
     </g>
    </g>
   </g>
   <g id="patch_7">
    <path d="M 1143.839167 221.421455 
L 1275.544167 221.421455 
L 1275.544167 155.647091 
L 1143.839167 155.647091 
L 1143.839167 221.421455 
z
" clip-path="url(#pbc6abbdb0b)" style="fill: #3b6258; stroke: #2f2f2f; stroke-width: 1.5; stroke-linejoin: miter"/>
   </g>
   <g id="line2d_31">
    <path d="M 1209.691667 221.421455 
L 1209.691667 297.903273 
" clip-path="url(#pbc6abbdb0b)" style="fill: none; stroke: #2f2f2f; stroke-width: 1.5; stroke-linecap: round"/>
   </g>
   <g id="line2d_32">
    <path d="M 1209.691667 155.647091 
L 1209.691667 144.939636 
" clip-path="url(#pbc6abbdb0b)" style="fill: none; stroke: #2f2f2f; stroke-width: 1.5; stroke-linecap: round"/>
   </g>
   <g id="line2d_33">
    <path d="M 1176.765417 297.903273 
L 1242.617917 297.903273 
" clip-path="url(#pbc6abbdb0b)" style="fill: none; stroke: #2f2f2f; stroke-width: 1.5; stroke-linecap: round"/>
   </g>
   <g id="line2d_34">
    <path d="M 1176.765417 144.939636 
L 1242.617917 144.939636 
" clip-path="url(#pbc6abbdb0b)" style="fill: none; stroke: #2f2f2f; stroke-width: 1.5; stroke-linecap: round"/>
   </g>
   <g id="line2d_35">
    <g clip-path="url(#pbc6abbdb0b)">
     <use xlink:href="#md23d356986" x="1209.691667" y="352.970182" style="fill: #2f2f2f; stroke: #2f2f2f"/>
     <use xlink:href="#md23d356986" x="1209.691667" y="391.76176" style="fill: #2f2f2f; stroke: #2f2f2f"/>
    </g>
   </g>
   <g id="line2d_36">
    <path d="M 1143.839167 175.532364 
L 1275.544167 175.532364 
" clip-path="url(#pbc6abbdb0b)" style="fill: none; stroke: #2f2f2f; stroke-width: 1.5; stroke-linecap: round"/>
   </g>
  </g>
  <g id="text_14">
   <!-- Verteilung des Schlaganfalls mit den Merkmalen Alter und Geschlecht -->
   <g style="fill: #262626" transform="translate(324.6 23.836875) scale(0.2 -0.2)">
    <defs>
     <path id="DejaVuSans-Bold-56" d="M 31 4666 
L 1241 4666 
L 2478 1222 
L 3713 4666 
L 4922 4666 
L 3194 0 
L 1759 0 
L 31 4666 
z
" transform="scale(0.015625)"/>
     <path id="DejaVuSans-Bold-65" d="M 4031 1759 
L 4031 1441 
L 1416 1441 
Q 1456 1047 1700 850 
Q 1944 653 2381 653 
Q 2734 653 3104 758 
Q 3475 863 3866 1075 
L 3866 213 
Q 3469 63 3072 -14 
Q 2675 -91 2278 -91 
Q 1328 -91 801 392 
Q 275 875 275 1747 
Q 275 2603 792 3093 
Q 1309 3584 2216 3584 
Q 3041 3584 3536 3087 
Q 4031 2591 4031 1759 
z
M 2881 2131 
Q 2881 2450 2695 2645 
Q 2509 2841 2209 2841 
Q 1884 2841 1681 2658 
Q 1478 2475 1428 2131 
L 2881 2131 
z
" transform="scale(0.015625)"/>
     <path id="DejaVuSans-Bold-72" d="M 3138 2547 
Q 2991 2616 2845 2648 
Q 2700 2681 2553 2681 
Q 2122 2681 1889 2404 
Q 1656 2128 1656 1613 
L 1656 0 
L 538 0 
L 538 3500 
L 1656 3500 
L 1656 2925 
Q 1872 3269 2151 3426 
Q 2431 3584 2822 3584 
Q 2878 3584 2943 3579 
Q 3009 3575 3134 3559 
L 3138 2547 
z
" transform="scale(0.015625)"/>
     <path id="DejaVuSans-Bold-74" d="M 1759 4494 
L 1759 3500 
L 2913 3500 
L 2913 2700 
L 1759 2700 
L 1759 1216 
Q 1759 972 1856 886 
Q 1953 800 2241 800 
L 2816 800 
L 2816 0 
L 1856 0 
Q 1194 0 917 276 
Q 641 553 641 1216 
L 641 2700 
L 84 2700 
L 84 3500 
L 641 3500 
L 641 4494 
L 1759 4494 
z
" transform="scale(0.015625)"/>
     <path id="DejaVuSans-Bold-69" d="M 538 3500 
L 1656 3500 
L 1656 0 
L 538 0 
L 538 3500 
z
M 538 4863 
L 1656 4863 
L 1656 3950 
L 538 3950 
L 538 4863 
z
" transform="scale(0.015625)"/>
     <path id="DejaVuSans-Bold-6c" d="M 538 4863 
L 1656 4863 
L 1656 0 
L 538 0 
L 538 4863 
z
" transform="scale(0.015625)"/>
     <path id="DejaVuSans-Bold-75" d="M 500 1363 
L 500 3500 
L 1625 3500 
L 1625 3150 
Q 1625 2866 1622 2436 
Q 1619 2006 1619 1863 
Q 1619 1441 1641 1255 
Q 1663 1069 1716 984 
Q 1784 875 1895 815 
Q 2006 756 2150 756 
Q 2500 756 2700 1025 
Q 2900 1294 2900 1772 
L 2900 3500 
L 4019 3500 
L 4019 0 
L 2900 0 
L 2900 506 
Q 2647 200 2364 54 
Q 2081 -91 1741 -91 
Q 1134 -91 817 281 
Q 500 653 500 1363 
z
" transform="scale(0.015625)"/>
     <path id="DejaVuSans-Bold-6e" d="M 4056 2131 
L 4056 0 
L 2931 0 
L 2931 347 
L 2931 1631 
Q 2931 2084 2911 2256 
Q 2891 2428 2841 2509 
Q 2775 2619 2662 2680 
Q 2550 2741 2406 2741 
Q 2056 2741 1856 2470 
Q 1656 2200 1656 1722 
L 1656 0 
L 538 0 
L 538 3500 
L 1656 3500 
L 1656 2988 
Q 1909 3294 2193 3439 
Q 2478 3584 2822 3584 
Q 3428 3584 3742 3212 
Q 4056 2841 4056 2131 
z
" transform="scale(0.015625)"/>
     <path id="DejaVuSans-Bold-67" d="M 2919 594 
Q 2688 288 2409 144 
Q 2131 0 1766 0 
Q 1125 0 706 504 
Q 288 1009 288 1791 
Q 288 2575 706 3076 
Q 1125 3578 1766 3578 
Q 2131 3578 2409 3434 
Q 2688 3291 2919 2981 
L 2919 3500 
L 4044 3500 
L 4044 353 
Q 4044 -491 3511 -936 
Q 2978 -1381 1966 -1381 
Q 1638 -1381 1331 -1331 
Q 1025 -1281 716 -1178 
L 716 -306 
Q 1009 -475 1290 -558 
Q 1572 -641 1856 -641 
Q 2406 -641 2662 -400 
Q 2919 -159 2919 353 
L 2919 594 
z
M 2181 2772 
Q 1834 2772 1640 2515 
Q 1447 2259 1447 1791 
Q 1447 1309 1634 1061 
Q 1822 813 2181 813 
Q 2531 813 2725 1069 
Q 2919 1325 2919 1791 
Q 2919 2259 2725 2515 
Q 2531 2772 2181 2772 
z
" transform="scale(0.015625)"/>
     <path id="DejaVuSans-Bold-20" transform="scale(0.015625)"/>
     <path id="DejaVuSans-Bold-64" d="M 2919 2988 
L 2919 4863 
L 4044 4863 
L 4044 0 
L 2919 0 
L 2919 506 
Q 2688 197 2409 53 
Q 2131 -91 1766 -91 
Q 1119 -91 703 423 
Q 288 938 288 1747 
Q 288 2556 703 3070 
Q 1119 3584 1766 3584 
Q 2128 3584 2408 3439 
Q 2688 3294 2919 2988 
z
M 2181 722 
Q 2541 722 2730 984 
Q 2919 1247 2919 1747 
Q 2919 2247 2730 2509 
Q 2541 2772 2181 2772 
Q 1825 2772 1636 2509 
Q 1447 2247 1447 1747 
Q 1447 1247 1636 984 
Q 1825 722 2181 722 
z
" transform="scale(0.015625)"/>
     <path id="DejaVuSans-Bold-73" d="M 3272 3391 
L 3272 2541 
Q 2913 2691 2578 2766 
Q 2244 2841 1947 2841 
Q 1628 2841 1473 2761 
Q 1319 2681 1319 2516 
Q 1319 2381 1436 2309 
Q 1553 2238 1856 2203 
L 2053 2175 
Q 2913 2066 3209 1816 
Q 3506 1566 3506 1031 
Q 3506 472 3093 190 
Q 2681 -91 1863 -91 
Q 1516 -91 1145 -36 
Q 775 19 384 128 
L 384 978 
Q 719 816 1070 734 
Q 1422 653 1784 653 
Q 2113 653 2278 743 
Q 2444 834 2444 1013 
Q 2444 1163 2330 1236 
Q 2216 1309 1875 1350 
L 1678 1375 
Q 931 1469 631 1722 
Q 331 1975 331 2491 
Q 331 3047 712 3315 
Q 1094 3584 1881 3584 
Q 2191 3584 2531 3537 
Q 2872 3491 3272 3391 
z
" transform="scale(0.015625)"/>
     <path id="DejaVuSans-Bold-53" d="M 3834 4519 
L 3834 3531 
Q 3450 3703 3084 3790 
Q 2719 3878 2394 3878 
Q 1963 3878 1756 3759 
Q 1550 3641 1550 3391 
Q 1550 3203 1689 3098 
Q 1828 2994 2194 2919 
L 2706 2816 
Q 3484 2659 3812 2340 
Q 4141 2022 4141 1434 
Q 4141 663 3683 286 
Q 3225 -91 2284 -91 
Q 1841 -91 1394 -6 
Q 947 78 500 244 
L 500 1259 
Q 947 1022 1364 901 
Q 1781 781 2169 781 
Q 2563 781 2772 912 
Q 2981 1044 2981 1288 
Q 2981 1506 2839 1625 
Q 2697 1744 2272 1838 
L 1806 1941 
Q 1106 2091 782 2419 
Q 459 2747 459 3303 
Q 459 4000 909 4375 
Q 1359 4750 2203 4750 
Q 2588 4750 2994 4692 
Q 3400 4634 3834 4519 
z
" transform="scale(0.015625)"/>
     <path id="DejaVuSans-Bold-63" d="M 3366 3391 
L 3366 2478 
Q 3138 2634 2908 2709 
Q 2678 2784 2431 2784 
Q 1963 2784 1702 2511 
Q 1441 2238 1441 1747 
Q 1441 1256 1702 982 
Q 1963 709 2431 709 
Q 2694 709 2930 787 
Q 3166 866 3366 1019 
L 3366 103 
Q 3103 6 2833 -42 
Q 2563 -91 2291 -91 
Q 1344 -91 809 395 
Q 275 881 275 1747 
Q 275 2613 809 3098 
Q 1344 3584 2291 3584 
Q 2566 3584 2833 3536 
Q 3100 3488 3366 3391 
z
" transform="scale(0.015625)"/>
     <path id="DejaVuSans-Bold-68" d="M 4056 2131 
L 4056 0 
L 2931 0 
L 2931 347 
L 2931 1625 
Q 2931 2084 2911 2256 
Q 2891 2428 2841 2509 
Q 2775 2619 2662 2680 
Q 2550 2741 2406 2741 
Q 2056 2741 1856 2470 
Q 1656 2200 1656 1722 
L 1656 0 
L 538 0 
L 538 4863 
L 1656 4863 
L 1656 2988 
Q 1909 3294 2193 3439 
Q 2478 3584 2822 3584 
Q 3428 3584 3742 3212 
Q 4056 2841 4056 2131 
z
" transform="scale(0.015625)"/>
     <path id="DejaVuSans-Bold-61" d="M 2106 1575 
Q 1756 1575 1579 1456 
Q 1403 1338 1403 1106 
Q 1403 894 1545 773 
Q 1688 653 1941 653 
Q 2256 653 2472 879 
Q 2688 1106 2688 1447 
L 2688 1575 
L 2106 1575 
z
M 3816 1997 
L 3816 0 
L 2688 0 
L 2688 519 
Q 2463 200 2181 54 
Q 1900 -91 1497 -91 
Q 953 -91 614 226 
Q 275 544 275 1050 
Q 275 1666 698 1953 
Q 1122 2241 2028 2241 
L 2688 2241 
L 2688 2328 
Q 2688 2594 2478 2717 
Q 2269 2841 1825 2841 
Q 1466 2841 1156 2769 
Q 847 2697 581 2553 
L 581 3406 
Q 941 3494 1303 3539 
Q 1666 3584 2028 3584 
Q 2975 3584 3395 3211 
Q 3816 2838 3816 1997 
z
" transform="scale(0.015625)"/>
     <path id="DejaVuSans-Bold-66" d="M 2841 4863 
L 2841 4128 
L 2222 4128 
Q 1984 4128 1890 4042 
Q 1797 3956 1797 3744 
L 1797 3500 
L 2753 3500 
L 2753 2700 
L 1797 2700 
L 1797 0 
L 678 0 
L 678 2700 
L 122 2700 
L 122 3500 
L 678 3500 
L 678 3744 
Q 678 4316 997 4589 
Q 1316 4863 1984 4863 
L 2841 4863 
z
" transform="scale(0.015625)"/>
     <path id="DejaVuSans-Bold-6d" d="M 3781 2919 
Q 3994 3244 4286 3414 
Q 4578 3584 4928 3584 
Q 5531 3584 5847 3212 
Q 6163 2841 6163 2131 
L 6163 0 
L 5038 0 
L 5038 1825 
Q 5041 1866 5042 1909 
Q 5044 1953 5044 2034 
Q 5044 2406 4934 2573 
Q 4825 2741 4581 2741 
Q 4263 2741 4089 2478 
Q 3916 2216 3909 1719 
L 3909 0 
L 2784 0 
L 2784 1825 
Q 2784 2406 2684 2573 
Q 2584 2741 2328 2741 
Q 2006 2741 1831 2477 
Q 1656 2213 1656 1722 
L 1656 0 
L 531 0 
L 531 3500 
L 1656 3500 
L 1656 2988 
Q 1863 3284 2130 3434 
Q 2397 3584 2719 3584 
Q 3081 3584 3359 3409 
Q 3638 3234 3781 2919 
z
" transform="scale(0.015625)"/>
     <path id="DejaVuSans-Bold-4d" d="M 588 4666 
L 2119 4666 
L 3181 2169 
L 4250 4666 
L 5778 4666 
L 5778 0 
L 4641 0 
L 4641 3413 
L 3566 897 
L 2803 897 
L 1728 3413 
L 1728 0 
L 588 0 
L 588 4666 
z
" transform="scale(0.015625)"/>
     <path id="DejaVuSans-Bold-6b" d="M 538 4863 
L 1656 4863 
L 1656 2216 
L 2944 3500 
L 4244 3500 
L 2534 1894 
L 4378 0 
L 3022 0 
L 1656 1459 
L 1656 0 
L 538 0 
L 538 4863 
z
" transform="scale(0.015625)"/>
     <path id="DejaVuSans-Bold-41" d="M 3419 850 
L 1538 850 
L 1241 0 
L 31 0 
L 1759 4666 
L 3194 4666 
L 4922 0 
L 3713 0 
L 3419 850 
z
M 1838 1716 
L 3116 1716 
L 2478 3572 
L 1838 1716 
z
" transform="scale(0.015625)"/>
     <path id="DejaVuSans-Bold-47" d="M 4781 347 
Q 4331 128 3847 18 
Q 3363 -91 2847 -91 
Q 1681 -91 1000 561 
Q 319 1213 319 2328 
Q 319 3456 1012 4103 
Q 1706 4750 2913 4750 
Q 3378 4750 3804 4662 
Q 4231 4575 4609 4403 
L 4609 3438 
Q 4219 3659 3833 3768 
Q 3447 3878 3059 3878 
Q 2341 3878 1952 3476 
Q 1563 3075 1563 2328 
Q 1563 1588 1938 1184 
Q 2313 781 3003 781 
Q 3191 781 3352 804 
Q 3513 828 3641 878 
L 3641 1784 
L 2906 1784 
L 2906 2591 
L 4781 2591 
L 4781 347 
z
" transform="scale(0.015625)"/>
    </defs>
    <use xlink:href="#DejaVuSans-Bold-56"/>
    <use xlink:href="#DejaVuSans-Bold-65" x="71.892578"/>
    <use xlink:href="#DejaVuSans-Bold-72" x="139.714844"/>
    <use xlink:href="#DejaVuSans-Bold-74" x="189.03125"/>
    <use xlink:href="#DejaVuSans-Bold-65" x="236.833984"/>
    <use xlink:href="#DejaVuSans-Bold-69" x="304.65625"/>
    <use xlink:href="#DejaVuSans-Bold-6c" x="338.933594"/>
    <use xlink:href="#DejaVuSans-Bold-75" x="373.210938"/>
    <use xlink:href="#DejaVuSans-Bold-6e" x="444.402344"/>
    <use xlink:href="#DejaVuSans-Bold-67" x="515.59375"/>
    <use xlink:href="#DejaVuSans-Bold-20" x="587.175781"/>
    <use xlink:href="#DejaVuSans-Bold-64" x="621.990234"/>
    <use xlink:href="#DejaVuSans-Bold-65" x="693.572266"/>
    <use xlink:href="#DejaVuSans-Bold-73" x="761.394531"/>
    <use xlink:href="#DejaVuSans-Bold-20" x="820.916016"/>
    <use xlink:href="#DejaVuSans-Bold-53" x="855.730469"/>
    <use xlink:href="#DejaVuSans-Bold-63" x="927.751953"/>
    <use xlink:href="#DejaVuSans-Bold-68" x="987.029297"/>
    <use xlink:href="#DejaVuSans-Bold-6c" x="1058.220703"/>
    <use xlink:href="#DejaVuSans-Bold-61" x="1092.498047"/>
    <use xlink:href="#DejaVuSans-Bold-67" x="1159.978516"/>
    <use xlink:href="#DejaVuSans-Bold-61" x="1231.560547"/>
    <use xlink:href="#DejaVuSans-Bold-6e" x="1299.041016"/>
    <use xlink:href="#DejaVuSans-Bold-66" x="1370.232422"/>
    <use xlink:href="#DejaVuSans-Bold-61" x="1413.738281"/>
    <use xlink:href="#DejaVuSans-Bold-6c" x="1481.21875"/>
    <use xlink:href="#DejaVuSans-Bold-6c" x="1515.496094"/>
    <use xlink:href="#DejaVuSans-Bold-73" x="1549.773438"/>
    <use xlink:href="#DejaVuSans-Bold-20" x="1609.294922"/>
    <use xlink:href="#DejaVuSans-Bold-6d" x="1644.109375"/>
    <use xlink:href="#DejaVuSans-Bold-69" x="1748.308594"/>
    <use xlink:href="#DejaVuSans-Bold-74" x="1782.585938"/>
    <use xlink:href="#DejaVuSans-Bold-20" x="1830.388672"/>
    <use xlink:href="#DejaVuSans-Bold-64" x="1865.203125"/>
    <use xlink:href="#DejaVuSans-Bold-65" x="1936.785156"/>
    <use xlink:href="#DejaVuSans-Bold-6e" x="2004.607422"/>
    <use xlink:href="#DejaVuSans-Bold-20" x="2075.798828"/>
    <use xlink:href="#DejaVuSans-Bold-4d" x="2110.613281"/>
    <use xlink:href="#DejaVuSans-Bold-65" x="2210.125"/>
    <use xlink:href="#DejaVuSans-Bold-72" x="2277.947266"/>
    <use xlink:href="#DejaVuSans-Bold-6b" x="2327.263672"/>
    <use xlink:href="#DejaVuSans-Bold-6d" x="2393.767578"/>
    <use xlink:href="#DejaVuSans-Bold-61" x="2497.966797"/>
    <use xlink:href="#DejaVuSans-Bold-6c" x="2565.447266"/>
    <use xlink:href="#DejaVuSans-Bold-65" x="2599.724609"/>
    <use xlink:href="#DejaVuSans-Bold-6e" x="2667.546875"/>
    <use xlink:href="#DejaVuSans-Bold-20" x="2738.738281"/>
    <use xlink:href="#DejaVuSans-Bold-41" x="2773.552734"/>
    <use xlink:href="#DejaVuSans-Bold-6c" x="2850.945312"/>
    <use xlink:href="#DejaVuSans-Bold-74" x="2885.222656"/>
    <use xlink:href="#DejaVuSans-Bold-65" x="2933.025391"/>
    <use xlink:href="#DejaVuSans-Bold-72" x="3000.847656"/>
    <use xlink:href="#DejaVuSans-Bold-20" x="3050.164062"/>
    <use xlink:href="#DejaVuSans-Bold-75" x="3084.978516"/>
    <use xlink:href="#DejaVuSans-Bold-6e" x="3156.169922"/>
    <use xlink:href="#DejaVuSans-Bold-64" x="3227.361328"/>
    <use xlink:href="#DejaVuSans-Bold-20" x="3298.943359"/>
    <use xlink:href="#DejaVuSans-Bold-47" x="3333.757812"/>
    <use xlink:href="#DejaVuSans-Bold-65" x="3415.837891"/>
    <use xlink:href="#DejaVuSans-Bold-73" x="3483.660156"/>
    <use xlink:href="#DejaVuSans-Bold-63" x="3543.181641"/>
    <use xlink:href="#DejaVuSans-Bold-68" x="3602.458984"/>
    <use xlink:href="#DejaVuSans-Bold-6c" x="3673.650391"/>
    <use xlink:href="#DejaVuSans-Bold-65" x="3707.927734"/>
    <use xlink:href="#DejaVuSans-Bold-63" x="3775.75"/>
    <use xlink:href="#DejaVuSans-Bold-68" x="3835.027344"/>
    <use xlink:href="#DejaVuSans-Bold-74" x="3906.21875"/>
   </g>
  </g>
 </g>
 <defs>
  <clipPath id="pd185f9fc8c">
   <rect x="53.75" y="59.28" width="439.016667" height="336.52"/>
  </clipPath>
  <clipPath id="p61b24ee81c">
   <rect x="521.966667" y="59.28" width="439.016667" height="336.52"/>
  </clipPath>
  <clipPath id="pbc6abbdb0b">
   <rect x="990.183333" y="59.28" width="439.016667" height="336.52"/>
  </clipPath>
 </defs>
</svg>
